<svg id="Layer_1" data-name="Layer 1" xmlns="http://www.w3.org/2000/svg" viewBox="0 0 78 78"><defs><style>.cls-1{fill:#fff;}</style></defs><title>Artboard 1 copy 2</title><path class="cls-1" d="M6.51,36.88h.08a.87.87,0,0,0,.88-.8,19.31,19.31,0,0,1,.46-2.72c1.7-7,7.28-12.71,15.69-16s18.91-3.79,29.24-1.3c1.63.39,3.27.86,4.85,1.39a.89.89,0,0,0,.68,0,.94.94,0,0,0,.45-.51.9.9,0,0,0-.56-1.12c-1.63-.54-3.32-1-5-1.43C42.59,11.81,31.83,12.3,23,15.75S8.06,25.35,6.21,33a19.38,19.38,0,0,0-.5,3,.88.88,0,0,0,.2.64A.86.86,0,0,0,6.51,36.88Z"/><path class="cls-1" d="M40.49,10h0c14.29,0,25.26,4.73,29.06,7.24,1.28.83,3,2.63,2.94,3.33,0,0,0,.05-.06.09A3.65,3.65,0,0,1,71,19.8a8.13,8.13,0,0,0-.85-.78.89.89,0,0,0-1.2.11.88.88,0,0,0,0,1.2c.28.28.55.54.81.76a1.82,1.82,0,0,1,.57,1c0,.07-.15.16-.21.2-.69.39-2.68-.68-5-2.66a13,13,0,0,0-1.38-1.3.88.88,0,0,0-1.19,1.3c.28.29.74.74,1.31,1.24,1.12,1.24,1.56,2.22,1.2,2.69-.54.71-3.45-1.32-5.19-2.53s-3.83-2.68-5.42-3a.89.89,0,0,0-1,.44.9.9,0,0,0,.18,1.06c.61.57.88,1.13.73,1.5a1.75,1.75,0,0,1-1.61.73,8.39,8.39,0,0,1-2.31-.92A24.49,24.49,0,0,0,35.76,18a.9.9,0,0,0-.59.34A.91.91,0,0,0,35,19a.88.88,0,0,0,.34.59.86.86,0,0,0,.65.18,22.6,22.6,0,0,1,13.79,2.66,7.91,7.91,0,0,0,3.09,1.1,3.37,3.37,0,0,0,3.26-1.84,2.55,2.55,0,0,0,.16-.95c.85.51,1.77,1.15,2.68,1.79,2.21,1.54,4.29,3,5.9,3a2,2,0,0,0,1.7-.85,2.28,2.28,0,0,0,.49-1.44c1.69,1,3,1.19,4,.63a2,2,0,0,0,1.08-1.42,1.7,1.7,0,0,0,1.19-.18,1.84,1.84,0,0,0,1-1.56c.06-2.2-3.69-4.79-3.73-4.81-4-2.63-15.08-7.48-29-7.48H40.47a1,1,0,0,0-.61.23.79.79,0,0,0-.26.6A.83.83,0,0,0,40.49,10Z"/><path class="cls-1" d="M23.11,51.76h0a.9.9,0,0,0,1.24-.18.86.86,0,0,0,.16-.66.89.89,0,0,0-.35-.58,15.67,15.67,0,0,1-5.42-8.43.89.89,0,0,0-1.61-.29.86.86,0,0,0-.12.66A17.45,17.45,0,0,0,23.11,51.76Z"/><path class="cls-1" d="M63.54,28.71a4.22,4.22,0,1,0,4.24,4.21A4.24,4.24,0,0,0,63.54,28.71ZM66,32.92a2.48,2.48,0,1,1-2.47-2.46A2.47,2.47,0,0,1,66,32.92Z"/><path class="cls-1" d="M31,20.57a.86.86,0,0,0,.54-.41.85.85,0,0,0,.09-.66.88.88,0,0,0-1.08-.63c-9.51,2.5-16,8.2-17.82,15.66-1.21,5-.21,10.27,2.91,15.28a.89.89,0,0,0,.75.42.87.87,0,0,0,.86-.68.81.81,0,0,0-.11-.66c-2.86-4.61-3.79-9.43-2.69-14C16.14,28.13,22.17,22.9,31,20.57Z"/><path class="cls-1" d="M29.37,62.12a79.27,79.27,0,0,0,14.35,4.81l.15,0A.87.87,0,0,0,44,65.22,88,88,0,0,1,30.2,60.54a.9.9,0,0,0-1.26,1.06A.86.86,0,0,0,29.37,62.12Z"/><path class="cls-1" d="M73.13,60.45A64,64,0,0,0,65,56.93a2.32,2.32,0,0,0,.34-1.74c-.35-1.61-.83-4.31-1.3-6.92l0-.15c-.56-3.1-1.08-6-1.37-7.15-1.11-4.33-3.79-6.93-7.54-7.3-3.48-.36-11.78.8-15.19,2.42a5.9,5.9,0,0,0-3.61,5.36,4.92,4.92,0,0,0,3.17,4.46,33.35,33.35,0,0,0,4.78,1.47l-3.78,4.07c-1.69-.19-3.34-.35-4.9-.46a10.94,10.94,0,0,0-3.54.32l-7.37,1.9a1.61,1.61,0,0,0-.39,3c4.37,2.47,19.72,7.89,36.83,7.89a73.94,73.94,0,0,0,11.61-.89A1.43,1.43,0,0,0,73.89,62,1.42,1.42,0,0,0,73.13,60.45Zm-33.39-6L33.8,53.32a.86.86,0,0,0-.66.14.88.88,0,0,0-.38.56.89.89,0,0,0,.7,1L47,57.68a.89.89,0,0,0,1-.69.85.85,0,0,0-.13-.66.88.88,0,0,0-.57-.38l-3.21-.62,1.44-1.42c1.06.17,2.16.36,3.26.56l-.31,2.7A2.63,2.63,0,0,0,50.67,60a2.09,2.09,0,0,0,.49.05A2.63,2.63,0,0,0,53.75,58l.48-2.38a90.2,90.2,0,0,1,13,4.09l-10.78-2a.86.86,0,0,0-.66.14.87.87,0,0,0-.23,1.22,1,1,0,0,0,.57.37l13.14,2.39c-19.63,2.2-38.64-4.23-43.92-7.06L32.45,53a9.3,9.3,0,0,1,3-.27c1.29.1,2.65.22,4.16.38a2.41,2.41,0,0,0,.17,1.36Zm1.81-1.63,4.64-5c1,.23,1.87.42,2.5.54l-5.82,5.73a.9.9,0,0,1-1.24,0,.9.9,0,0,1-.08-1.3ZM54.89,35.42c3.79.38,5.36,3.47,6,6,.27,1,.81,4.08,1.34,7l0,.11c.47,2.64,1,5.37,1.32,7a.52.52,0,0,1-.09.42.57.57,0,0,1-.38.22.54.54,0,0,1-.58-.38c-.15-.49-.32-1.11-.52-1.82l0-.19c-2.17-7.7-3.58-12-4.82-12.87a4.41,4.41,0,0,0-2.4-.49,36.41,36.41,0,0,0-7.64,1.23,1,1,0,0,0-.8,1,1.05,1.05,0,0,0,.78,1l5.2,1.4A2.36,2.36,0,0,1,54,47.83l-2,9.81a.88.88,0,0,1-1.73-.27l.38-3.46.79-6.78-.8-.15s-2-.36-4.38-.9A.9.9,0,0,0,45.9,46h0c-2.66-1-4.6-1.2-5.75-1.69A3.18,3.18,0,0,1,38,41.42a4.17,4.17,0,0,1,2.6-3.73C43.67,36.24,51.72,35.1,54.89,35.42Zm-7.75,17,2.2-2.15-.29,2.49Zm8.58-4.2a4.12,4.12,0,0,0-3-4.79l-2.38-.64c3.38-.66,5.33-.67,5.78-.36,1,.72,3.33,9.11,4.11,11.89l0,.17c.11.38.2.72.29,1-1.92-.58-3.94-1.12-6-1.61Z"/><path class="cls-1" d="M52.86,70.75A55.74,55.74,0,0,1,40,69.16C22,64.85,8.67,52.75,7.47,39.74a.88.88,0,0,0-1.76.15C7,53.68,20.89,66.45,39.53,70.93a57.47,57.47,0,0,0,13.33,1.69.94.94,0,0,0,.88-1,.93.93,0,0,0-.25-.64A.86.86,0,0,0,52.86,70.75Z"/><path class="cls-1" d="M32,50.6a.88.88,0,0,0,.83-.58.89.89,0,0,0-.53-1.13,9.94,9.94,0,0,1-4.86-3.31.89.89,0,0,0-1.22-.27A.88.88,0,0,0,26,46.52a11.42,11.42,0,0,0,5.76,4A1,1,0,0,0,32,50.6Z"/><path class="cls-1" d="M27.93,51.35a.87.87,0,0,0,.82-1.21.92.92,0,0,0-.47-.48c-3.67-1.53-5.47-5.71-5.49-5.76a.85.85,0,0,0-.48-.47.87.87,0,0,0-1.15.48.86.86,0,0,0,0,.67c.09.2,2.1,4.9,6.43,6.71A1,1,0,0,0,27.93,51.35Z"/></svg>