<svg id="Layer_1" data-name="Layer 1" xmlns="http://www.w3.org/2000/svg" viewBox="0 0 78 78"><defs><style>.cls-1{fill:#fff;}</style></defs><title>Artboard 1 copy 10</title><path class="cls-1" d="M50.55,20.67a6.08,6.08,0,1,0-6-6.08A6.06,6.06,0,0,0,50.55,20.67Zm0-10.92a4.84,4.84,0,1,1-4.8,4.84A4.82,4.82,0,0,1,50.55,9.75ZM63,31.36c0-1-.11-2.84-.11-3.45a5.17,5.17,0,0,0-5.15-5.19H42.64a5.15,5.15,0,0,0-4.7,3.08l-.17.38-.2-.36a6,6,0,0,0-5.3-3.3H23.82c-4.25,0-5.66,3.78-6,4.94L13.16,43.57a3.08,3.08,0,0,0,.38,2.74,2.66,2.66,0,0,0,2.12,1.07A2.55,2.55,0,0,0,17,47l.45-.28-1.71,6.42a.64.64,0,0,0,.05.56.6.6,0,0,0,.53.3h4.33L16.74,69.44a.77.77,0,0,0,0,.15A3.25,3.25,0,0,0,20,72.86a3.34,3.34,0,0,0,1.86-.58,4.28,4.28,0,0,0,.42-.37,3.27,3.27,0,0,0,1-2.18l4-15.74h1.59v15.6s0,.07,0,.1a3.27,3.27,0,0,0,.95,2.21,3.69,3.69,0,0,0,.48.41,3.25,3.25,0,0,0,5.06-2.72V54h4.5a.63.63,0,0,0,.64-.62.73.73,0,0,0-.07-.29l-1.59-6,.42.22A2.86,2.86,0,0,0,42.37,47l.34-.29v22.9a3.24,3.24,0,0,0,5.1,2.68,3.12,3.12,0,0,0,.42-.36,3.25,3.25,0,0,0,1-2.19.66.66,0,0,0,0-.13V49h2.22V69.59a.31.31,0,0,0,0,.1,3.22,3.22,0,0,0,.92,2.19,3.83,3.83,0,0,0,.5.43,3.24,3.24,0,0,0,5-2.72V46.69l.34.29A2.89,2.89,0,0,0,63,44.76ZM39,52.75H34.66a.62.62,0,0,0-.62.62V69.59a2,2,0,0,1-2,2,2,2,0,0,1-1.09-.33,3,3,0,0,1-.33-.27A2,2,0,0,1,30,69.59a.19.19,0,0,0,0-.08V53.37a.62.62,0,0,0-.62-.62H26.71a.61.61,0,0,0-.6.47L22,69.33a.69.69,0,0,0-.06.26A2,2,0,0,1,21.35,71a2.19,2.19,0,0,1-.24.22,2.13,2.13,0,0,1-1.15.36,2,2,0,0,1-2-1.92v0l4.1-16.14A.68.68,0,0,0,22,53a.63.63,0,0,0-.49-.24H17.13l6-22.44a.61.61,0,0,0-.11-.54.6.6,0,0,0-.49-.24h-.56a.62.62,0,0,0-.6.46L17.09,44.92a1.53,1.53,0,0,1-1.43,1.21,1.44,1.44,0,0,1-1.13-.56,1.81,1.81,0,0,1-.18-1.65L19,27.81c.34-1.22,1.5-4,4.8-4h8.45c2.9,0,4.23,2.2,4.84,4l.41,1.45v.2c0,.81.06,1.65.07,1.9h0v8.57l-2.34-8.26L34.81,30a.62.62,0,0,0-.6-.46h-.58a.62.62,0,0,0-.6.78ZM60.1,46.43a1.66,1.66,0,0,1-1.65-1.67V30a.62.62,0,0,0-.62-.62h-.55a.62.62,0,0,0-.62.62V69.59A2,2,0,0,1,53.23,71a2,2,0,0,1-.58-1.42V48.4a.63.63,0,0,0-.62-.63H48.58a.62.62,0,0,0-.62.63V69.48a.49.49,0,0,0,0,.11A2,2,0,0,1,47.34,71a2.19,2.19,0,0,1-.24.22,2.13,2.13,0,0,1-1.15.36,2,2,0,0,1-2-2V30a.61.61,0,0,0-.61-.62h-.56a.61.61,0,0,0-.61.62V44.76a1.67,1.67,0,1,1-3.33,0V31.15s0-1-.07-2c0-.54,0-1,0-1.24A3.93,3.93,0,0,1,42.64,24h15.1a3.94,3.94,0,0,1,3.91,3.95c0,.79.11,3.43.12,3.53V44.76A1.67,1.67,0,0,1,60.1,46.43ZM27.83,20.29a6.08,6.08,0,1,0-6-6.08A6.06,6.06,0,0,0,27.83,20.29Zm0-10.91A4.84,4.84,0,1,1,23,14.21,4.82,4.82,0,0,1,27.83,9.38Z"/></svg>