<svg id="Layer_1" data-name="Layer 1" xmlns="http://www.w3.org/2000/svg" viewBox="0 0 78 78"><defs><style>.cls-1{fill:#fff;}</style></defs><title>Artboard 1 copy 4</title><path class="cls-1" d="M35.81,36.13H18.71a.76.76,0,0,0-.76.76V57.05a.76.76,0,0,0,.76.76h17.1a.76.76,0,0,0,.76-.76V36.89A.76.76,0,0,0,35.81,36.13Zm-9.3,20.16h-7V47.73h7.05Zm0-10.08h-7V37.65h7.05Zm8.55,10.08H28V47.73h7.05Zm0-10.08H28V37.65h7.05Zm37.12-3.68a.66.66,0,0,0,0-.15.75.75,0,0,0-.09-.15l0-.1c-2.64-2.9-5.3-5.47-7.88-8s-5.2-5-7.8-7.88a.83.83,0,0,0-1.12,0L45.76,36.72V29l.91,1a.71.71,0,0,0,.52.24.7.7,0,0,0,.54-.2.77.77,0,0,0,0-1.08l-2.22-2.32c-.95-1-1.89-2-2.2-2.3q-3.49-3.77-7-7.49l-4.2-4.52L27.81,7.57a.75.75,0,0,0-1.1,0l-21.38,23a.76.76,0,0,0,0,1.07.77.77,0,0,0,1.07,0L7.92,30V68.57a.75.75,0,0,0,.75.76H71.45a.75.75,0,0,0,.75-.76V42.65A.5.5,0,0,0,72.18,42.53ZM44.25,67.81H9.42V28.42L27.26,9.2l8,8.61,7,7.49c.27.3,1,1.1,1.87,2l.13.14ZM45.76,39l10-11,.5.53c2.29,2.44,4.59,4.66,6.82,6.81s4.4,4.26,6.61,6.61H45.76ZM63.57,67.81h-9.9V50.61h9.9Zm7.13,0H65.08v-18a.76.76,0,0,0-.76-.76H52.92a.75.75,0,0,0-.75.76v18H45.76V43.41H70.7Z"/></svg>