<svg id="Layer_1" data-name="Layer 1" xmlns="http://www.w3.org/2000/svg" viewBox="0 0 78 78"><defs><style>.cls-1{fill:#fff;}</style></defs><title>Artboard 1 copy 5</title><path class="cls-1" d="M23.06,46.43h7.11a.81.81,0,0,0,.81-.81V35.23a4.37,4.37,0,0,0-8.73,0V45.62A.81.81,0,0,0,23.06,46.43Zm.81-11.2a2.75,2.75,0,0,1,5.49,0v1.14H23.87Zm0,2.74h5.49v6.85H23.87Zm24,8.46h7.11a.81.81,0,0,0,.81-.81V35.23a4.37,4.37,0,0,0-8.73,0V45.62A.81.81,0,0,0,47.83,46.43Zm6.3-1.61H48.64V38h5.49Zm-5.49-9.59a2.75,2.75,0,0,1,5.49,0v1.14H48.64Zm-13.2,11.2h7.11a.81.81,0,0,0,.81-.81V35.23a4.37,4.37,0,0,0-8.73,0V45.62A.81.81,0,0,0,35.44,46.43Zm.81-11.2a2.75,2.75,0,0,1,5.49,0v1.14H36.25Zm0,2.74h5.49v6.85H36.25ZM67.14,70.4h-6.5V54.16h2.44v-1.6H60.64v-2.1h2.44v-1.6H60.64V23.56h3.52a.57.57,0,0,0,.18,0l.17-.06a.76.76,0,0,0,.16-.1,1.26,1.26,0,0,0,.17-.18l.09-.19,0-.09a.41.41,0,0,0,0-.11.68.68,0,0,0,0-.15c0-.09,0-.13,0-.16a.72.72,0,0,0-.07-.15l-.07-.09-.06-.07-.14-.11-25-15.94a.84.84,0,0,0-.89,0L14,22.11s0,0-.06.06a.69.69,0,0,0-.12.14l-.06.1a.79.79,0,0,0,0,.13l0,.08a.69.69,0,0,0,0,.13c0,.08,0,.12,0,.16l.12.29.06.07a.72.72,0,0,0,.25.19.62.62,0,0,0,.18.07.73.73,0,0,0,.18,0h3.35V48.86H14.92v1.6h2.94v2.1H14.92v1.6h2.94V70.4H11.54a.8.8,0,1,0,0,1.6h55.6a.8.8,0,1,0,0-1.6ZM17.22,22l21.9-14.2L61.41,22ZM22.76,70.4H19.48V58.64l.54.19a4.05,4.05,0,0,1,2.74,3.81Zm24.69,0H31.05V68.24h16.4Zm-16.4-3.76,0-.43a8,8,0,0,1,4.19-6.58l.6-.33v7.34Zm6.44,0V58.79l.34,0a8.11,8.11,0,0,1,3,0l.32.07v7.81Zm5.31,0V59.38l.62.36a8,8,0,0,1,4,6.47l0,.43ZM59,70.4H55.75V62.64a4.05,4.05,0,0,1,2.73-3.81l.54-.19Zm0-13.35-.32.07a5.66,5.66,0,0,0-4.57,5.52V70.4H49.07V66.7a9.82,9.82,0,0,0-19.64,0v3.7H24.38V62.64a5.66,5.66,0,0,0-4.57-5.52l-.33-.07V54.16H59Zm0-4.49H19.48v-2.1H59Zm0-3.7H19.48V28.92H59Zm0-21.54H54.77v-1.4H53.14v1.4H48.88v-1.4H47.26v1.4H43v-1.4H41.38v1.4H37.12v-1.4H35.5v1.4H31.24v-1.4H29.62v1.4H25.36v-1.4H23.74v1.4H19.48V23.56H59Z"/></svg>