<svg id="Layer_1" data-name="Layer 1" xmlns="http://www.w3.org/2000/svg" viewBox="0 0 78 78"><defs><style>.cls-1{fill:#fff;}</style></defs><title>Artboard 1 copy 8</title><path class="cls-1" d="M20.66,38.86H42.49V29.48H20.66Zm1.68-7.95c0-.11.12-.2.28-.2H40.53c.15,0,.28.09.28.2v6.52c0,.11-.13.2-.28.2H22.62c-.16,0-.28-.09-.28-.2Zm50.4,36.48H65a.28.28,0,0,1-.28-.28V49a.29.29,0,0,1,.25-.28c8.41-.81,11.44-9.41,11.44-19.83C76.36,18,70.77,9.07,62.9,9.07c-5.95,0-10.4,5.21-12.45,13a.3.3,0,0,1-.24.21.28.28,0,0,1-.28-.14l-.85-1.48L31.76,15.3,14.44,20.85,5.55,38.57V67.11a.27.27,0,0,1-.28.28H4.15a.84.84,0,0,0,0,1.68H72.74a.84.84,0,0,0,0-1.68ZM15,66.05a.23.23,0,0,1-.14,0,.27.27,0,0,1-.14-.24V50.35a.27.27,0,0,1,.14-.24.28.28,0,0,1,.28,0l14.33,7.82a.27.27,0,0,1,.14.25.26.26,0,0,1-.15.24L15.09,66A.28.28,0,0,1,15,66.05Zm2.19-16.88a.27.27,0,0,1,.27-.21H46.31a.27.27,0,0,1,.27.21.28.28,0,0,1-.14.31l-14.56,7.6a.28.28,0,0,1-.13,0,.31.31,0,0,1-.13,0l-14.33-7.6A.28.28,0,0,1,17.15,49.17ZM46.09,67.39H17.42a.28.28,0,0,1-.13-.52l14.33-7.6a.26.26,0,0,1,.27,0l14.33,7.6a.28.28,0,0,1,.14.31A.29.29,0,0,1,46.09,67.39Zm2.74-1.62a.27.27,0,0,1-.14.24.23.23,0,0,1-.14,0,.28.28,0,0,1-.13,0l-14.33-7.6a.26.26,0,0,1-.15-.25.25.25,0,0,1,.15-.24l14.33-7.6a.26.26,0,0,1,.27,0,.27.27,0,0,1,.14.24Zm7.45,1.34a.28.28,0,0,1-.28.28H50.79a.27.27,0,0,1-.28-.28V47.28H13V67.11a.27.27,0,0,1-.28.28H7.51a.28.28,0,0,1-.28-.28V39.18a.24.24,0,0,1,0-.12L15.55,22.3a.29.29,0,0,1,.13-.14l16-5a.31.31,0,0,1,.23,0l16,5a.32.32,0,0,1,.14.14l1.79,3.57,2,4.25,4.48,8.93a.31.31,0,0,1,0,.13Zm6.71.22a.27.27,0,0,1-.28.28H58.24a.27.27,0,0,1-.28-.28V47.67a.29.29,0,0,1,.14-.25.3.3,0,0,1,.29,0A10.4,10.4,0,0,0,62.75,49a.28.28,0,0,1,.24.28Zm.84-40.16A.78.78,0,0,0,63,28v8.93a.26.26,0,0,1-.17.26.28.28,0,0,1-.3-.06L59.38,34a.83.83,0,0,0-1.17,0,.85.85,0,0,0-.25.59.83.83,0,0,0,.25.58l4.7,4.7a.27.27,0,0,1,.08.19v6.71a.29.29,0,0,1-.09.21.26.26,0,0,1-.23.06,11.3,11.3,0,0,1-4.59-1.83A.27.27,0,0,1,58,45V38.57l-6.47-12.9a.41.41,0,0,1,0-.16C52.64,17.08,56.9,11,62.9,11c6.94,0,11.78,8.14,11.78,18.15,0,9.42-3.17,17.23-9.69,18.16h0a.24.24,0,0,1-.18-.07.28.28,0,0,1-.1-.21V37.39a.32.32,0,0,1,.08-.2l4.7-4.69a.78.78,0,0,0,0-1.17.8.8,0,0,0-1.16,0l-3.14,3.13a.28.28,0,0,1-.3.06.27.27,0,0,1-.18-.26V28A.78.78,0,0,0,63.83,27.17Z"/><path class="cls-1" d="M69.44,63.77h1.12a.84.84,0,1,0,0-1.68H69.44a.28.28,0,0,1-.28-.28V58.46a.84.84,0,1,0-1.68,0v3.35a.27.27,0,0,1-.28.28H65a.27.27,0,0,1-.28-.28V58.46a.84.84,0,0,0-1.68,0v3.35a.28.28,0,0,1-.28.28H60.49a.27.27,0,0,1-.28-.28V58.46a.84.84,0,0,0-1.68,0v3.35a.28.28,0,0,1-.28.28H57.13a.84.84,0,1,0,0,1.68H69.44Z"/><path class="cls-1" d="M58.25,62.11H57.13a.84.84,0,1,0,0,1.67h1.12a.29.29,0,0,1,.28.28v3.35a.84.84,0,1,0,1.68,0V64.06a.28.28,0,0,1,.28-.28h2.24a.29.29,0,0,1,.28.28v3.35a.84.84,0,0,0,1.68,0V64.06a.28.28,0,0,1,.28-.28H67.2a.28.28,0,0,1,.28.28v3.35a.84.84,0,1,0,1.68,0V64.06a.29.29,0,0,1,.28-.28h1.12a.84.84,0,1,0,0-1.67H58.25Z"/></svg>