<svg id="Layer_1" data-name="Layer 1" xmlns="http://www.w3.org/2000/svg" viewBox="0 0 78 78"><defs><style>.cls-1{fill:#fff;}</style></defs><title>Artboard 1 copy 9</title><path class="cls-1" d="M56.8,71.55v-8.7a.59.59,0,0,0-.07-.26l-17-28.67a.54.54,0,0,0-.34-.23h-.1a.57.57,0,0,0-.31.1.62.62,0,0,0-.14.14l-17,28.67a.48.48,0,0,0-.07.26v8.7H5.47v.69H73v-.69ZM31,49h2.1a.52.52,0,0,0,0-1H31.61l7.63-12.83L46.86,48H45.38a.52.52,0,1,0,0,1h2.09l1.42,2.39H43.16V47.15a.51.51,0,0,0-.51-.51H35.83a.51.51,0,0,0-.51.51v4.27H29.58Zm11.14-1.37v3.76h-5.8V47.66ZM29,52.44H49.5L53,58.24H25.52Zm9.76,18.78H34.29V62h4.44Zm17.05-6.15H52.71V61.49a.51.51,0,0,0-.52-.51H42.65a.51.51,0,0,0-.51.51v3.58H42a.52.52,0,1,0,0,1H55.78v2.39H42a.51.51,0,1,0,0,1H55.78v1.71h-16V61.49a.51.51,0,0,0-.51-.51H33.78a.51.51,0,0,0-.51.51v9.73H22.7V69.51h9a.51.51,0,0,0,0-1h-9V66.1h9a.52.52,0,0,0,0-1h-.86V61.49a.51.51,0,0,0-.51-.51H26.28a.51.51,0,0,0-.51.51v3.58H22.7V63l2.21-3.72H53.56L55.78,63ZM51.68,62v3.07H43.16V62ZM26.79,65.07V62h3.07v3.07Zm-10.55,3a.51.51,0,0,0,.7-.17l22.3-37.51,4.56,7.68L61.53,67.9a.51.51,0,0,0,.7.17.52.52,0,0,0,.18-.7l-.11-.18h0L39.68,29.13a.57.57,0,0,0-.34-.22.6.6,0,0,0-.41.09.62.62,0,0,0-.14.14L22.36,56.75h0l0,.06L16.06,67.37A.52.52,0,0,0,16.24,68.07Zm19.59-.61h1.36A.51.51,0,0,0,37.7,67V63.54a.51.51,0,0,0-.51-.52H35.83a.51.51,0,0,0-.51.52V67A.51.51,0,0,0,35.83,67.46Z"/><path class="cls-1" d="M17.23,62.62H12.77a.48.48,0,0,1-.35-.16.46.46,0,0,1-.11-.37L20.38,6a.46.46,0,0,1,.46-.4.47.47,0,0,1,.46.4l5.78,40.21a.52.52,0,0,1-.06.3L17.63,62.39A.45.45,0,0,1,17.23,62.62Zm-3.92-.93H17l9.17-15.51L20.84,9.34Z"/><path class="cls-1" d="M15.94,63.16l.29,1.59a.54.54,0,0,1-.1.39.48.48,0,0,1-.36.16h-12a.48.48,0,0,1-.36-.16.5.5,0,0,1-.1-.39l5.07-39a.46.46,0,0,1,.46-.38.47.47,0,0,1,.46.38L13.43,49,13,52.18,8.84,28.53,4.33,64.37H15.21L15,63.16Z"/><path class="cls-1" d="M60.68,62.39,51.29,46.51a.46.46,0,0,1-.06-.3L57,6a.46.46,0,0,1,.92,0L66,62.09a.46.46,0,0,1-.11.37.48.48,0,0,1-.35.16H61.08A.45.45,0,0,1,60.68,62.39Zm-3.21-53L52.18,46.18l9.17,15.51H65Z"/><path class="cls-1" d="M63.31,63.16l-.21,1.21H74L69.47,28.53l-4.2,23.65L64.88,49,69,25.79a.47.47,0,0,1,.46-.38.46.46,0,0,1,.46.38l5.07,39a.5.5,0,0,1-.11.39.45.45,0,0,1-.35.16h-12a.48.48,0,0,1-.36-.16.5.5,0,0,1-.1-.39l.28-1.59Z"/><path class="cls-1" d="M10.33,65.21l0,6.17H9.46l0-6.17h.85m.7-.7H8.78l0,7.57H11l0-7.57Z"/><path class="cls-1" d="M69.28,65.21l0,6.17h-.85V65.21h.86m.7-.7H67.73l0,7.57H70l0-7.57Z"/><path class="cls-1" d="M58.94,67l.86,1.42v2.95h-.86V67m-.69-2.5,0,7.57h2.26V68.24l-2.25-3.73Z"/><path class="cls-1" d="M19.37,67v4.37h-.86V68.43L19.37,67m.69-2.5-2.25,3.73,0,3.84h2.25l0-7.57Z"/></svg>