<svg id="Layer_1" data-name="Layer 1" xmlns="http://www.w3.org/2000/svg" viewBox="0 0 78 78"><defs><style>.cls-1{fill:#fff;}</style></defs><title>Artboard 1</title><path class="cls-1" d="M38.79,48a5.27,5.27,0,1,0-5.17-5.26A5.22,5.22,0,0,0,38.79,48Zm0-8.83a3.57,3.57,0,1,1-3.5,3.57A3.54,3.54,0,0,1,38.79,39.16Zm8,9.48a.83.83,0,0,0-1.1.43l-2.06,4.61c-.26.58-1.49,1.19-3.09,1.19H37.08c-1.61,0-2.84-.61-3.1-1.19l-2-4.61a.84.84,0,0,0-1.11-.43.86.86,0,0,0-.41,1.13l2.05,4.61c.59,1.31,2.44,2.19,4.62,2.19H40.5c2.17,0,4-.88,4.61-2.19l2-4.61A.85.85,0,0,0,46.75,48.64ZM36.39,59.74a.84.84,0,0,0-.83.85v9.06a.83.83,0,1,0,1.66,0V60.59A.84.84,0,0,0,36.39,59.74Zm4.79,0a.84.84,0,0,0-.83.85v9.06a.84.84,0,1,0,1.67,0V60.59A.85.85,0,0,0,41.18,59.74Zm-23-39.28A6.48,6.48,0,1,0,11.79,14,6.41,6.41,0,0,0,18.14,20.46Zm0-11.26A4.78,4.78,0,1,1,13.46,14,4.74,4.74,0,0,1,18.14,9.2Zm8.4,18.58A3.67,3.67,0,0,0,23,25H15.63a6.7,6.7,0,0,0-6.48,5.23L6.14,51a.85.85,0,0,0,.7,1H7a.84.84,0,0,0,.83-.73l.06-.46,2.94-20.27a5,5,0,0,1,4.84-3.86H23a2,2,0,0,1,1.93,1.55l3.59,14.61,0,.09a.82.82,0,0,0,1,.53.86.86,0,0,0,.61-1ZM14.62,49a.85.85,0,0,0-.83.86V69.14a.84.84,0,1,0,1.67,0V49.9A.85.85,0,0,0,14.62,49Zm7,0a.85.85,0,0,0-.84.86V69.14a.84.84,0,1,0,1.67,0V49.9A.85.85,0,0,0,21.66,49Zm38.2-25.17a6.48,6.48,0,1,0-6.35-6.48A6.41,6.41,0,0,0,59.86,23.87Zm0-11.26a4.78,4.78,0,1,1-4.68,4.78A4.73,4.73,0,0,1,59.86,12.61Zm9,19.19a6.69,6.69,0,0,0-6.46-5.15h-5a6.66,6.66,0,0,0-6.45,5.12l-3,10.6a.85.85,0,0,0,.57,1.05.81.81,0,0,0,1-.52l0-.06,3-10.63a5,5,0,0,1,4.84-3.86h5a5,5,0,0,1,4.83,3.79l2.94,18.64.07.47A.84.84,0,0,0,71,52h.14a.86.86,0,0,0,.69-1ZM63.37,49a.85.85,0,0,0-.83.86V69.14a.84.84,0,1,0,1.67,0V49.9A.85.85,0,0,0,63.37,49Zm-7,0a.85.85,0,0,0-.83.86V69.14a.84.84,0,1,0,1.67,0V49.9A.86.86,0,0,0,56.34,49Z"/><path class="cls-1" d="M41.18,70.62a1,1,0,0,1-1-1V60.59a1,1,0,1,1,1.91,0v9.06A1,1,0,0,1,41.18,70.62Zm0-10.76a.72.72,0,0,0-.7.73v9.06a.72.72,0,0,0,.7.73.72.72,0,0,0,.71-.73V60.59A.72.72,0,0,0,41.18,59.86ZM36.39,70.62a1,1,0,0,1-1-1V60.59a1,1,0,1,1,1.92,0v9.06A1,1,0,0,1,36.39,70.62Zm0-10.76a.72.72,0,0,0-.71.73v9.06a.71.71,0,1,0,1.42,0V60.59A.72.72,0,0,0,36.39,59.86Zm27,10.26a1,1,0,0,1-.95-1V49.9a1,1,0,1,1,1.91,0V69.14A1,1,0,0,1,63.37,70.12Zm0-21a.72.72,0,0,0-.7.73V69.14a.71.71,0,1,0,1.41,0V49.9A.72.72,0,0,0,63.37,49.17Zm-7,21a1,1,0,0,1-1-1V49.9a1,1,0,1,1,1.92,0V69.14A1,1,0,0,1,56.34,70.12Zm0-21a.72.72,0,0,0-.71.73V69.14a.71.71,0,1,0,1.42,0V49.9A.72.72,0,0,0,56.34,49.17Zm-34.68,21a1,1,0,0,1-1-1V49.9a1,1,0,1,1,1.92,0V69.14A1,1,0,0,1,21.66,70.12Zm0-21a.72.72,0,0,0-.71.73V69.14a.71.71,0,1,0,1.42,0V49.9A.72.72,0,0,0,21.66,49.17Zm-7,21a1,1,0,0,1-.95-1V49.9a1,1,0,1,1,1.91,0V69.14A1,1,0,0,1,14.62,70.12Zm0-21a.72.72,0,0,0-.7.73V69.14a.71.71,0,1,0,1.41,0V49.9A.72.72,0,0,0,14.62,49.17ZM40.5,56.7H37.08c-2.23,0-4.13-.91-4.73-2.27l-2.06-4.61a1,1,0,0,1,.48-1.29.93.93,0,0,1,.73,0A1,1,0,0,1,32,49l2.06,4.61c.24.53,1.44,1.11,3,1.11H40.5c1.53,0,2.74-.58,3-1.11L45.53,49a.94.94,0,0,1,.55-.52.9.9,0,0,1,.72,0h0a1,1,0,0,1,.48,1.29l-2.06,4.61C44.62,55.79,42.72,56.7,40.5,56.7Zm-9.33-8a.59.59,0,0,0-.29.07.73.73,0,0,0-.36,1l2.06,4.61c.56,1.27,2.37,2.12,4.5,2.12H40.5c2.12,0,3.93-.85,4.49-2.12l2.06-4.61a.73.73,0,0,0-.35-1h0a.65.65,0,0,0-.53,0,.67.67,0,0,0-.41.38l-2,4.61c-.28.61-1.5,1.26-3.21,1.26H37.08c-1.72,0-2.94-.65-3.21-1.26l-2.06-4.61a.68.68,0,0,0-.4-.38A.69.69,0,0,0,31.17,48.69ZM71,52.09a1,1,0,0,1-.94-.82l-3-19.11a4.84,4.84,0,0,0-4.7-3.68h-5a4.88,4.88,0,0,0-4.72,3.76l-3,10.64,0,.06a.94.94,0,0,1-1.16.6,1,1,0,0,1-.65-1.21l3-10.59a6.77,6.77,0,0,1,6.57-5.21h5A6.8,6.8,0,0,1,69,31.77h0L72,51a1,1,0,0,1-.79,1.12ZM57.35,28.23h5a5.1,5.1,0,0,1,4.95,3.88l3,19.12a.7.7,0,0,0,.81.6.72.72,0,0,0,.59-.83l-3-19.18a6.56,6.56,0,0,0-6.34-5h-5a6.52,6.52,0,0,0-6.33,5L48,42.4a.73.73,0,0,0,.48.9.7.7,0,0,0,.86-.45l0,0,3-10.63A5.13,5.13,0,0,1,57.35,28.23ZM7,52.09H6.82A1,1,0,0,1,6,51L9,30.16a6.85,6.85,0,0,1,6.6-5.33H23a3.79,3.79,0,0,1,3.68,2.92l3.59,14.62a1,1,0,0,1-.7,1.18,1,1,0,0,1-1.12-.61.42.42,0,0,1,0-.1L24.8,28.23A1.87,1.87,0,0,0,23,26.78H15.63a4.87,4.87,0,0,0-4.72,3.76l-3,20.72A1,1,0,0,1,7,52.09Zm8.67-27a6.61,6.61,0,0,0-6.36,5.13L6.26,51a.73.73,0,0,0,.6.83.72.72,0,0,0,.8-.62l.07-.46,2.94-20.27a5.12,5.12,0,0,1,5-4H23a2.13,2.13,0,0,1,2.06,1.64l3.58,14.61,0,.07a.7.7,0,0,0,.82.46.74.74,0,0,0,.52-.88L26.42,27.81A3.54,3.54,0,0,0,23,25.08Zm23.16,23a5.4,5.4,0,1,1,5.29-5.39A5.35,5.35,0,0,1,38.79,48.12Zm0-10.54a5.15,5.15,0,1,0,5,5.15A5.1,5.1,0,0,0,38.79,37.58Zm0,8.84a3.7,3.7,0,1,1,3.62-3.69A3.66,3.66,0,0,1,38.79,46.42Zm0-7.14a3.45,3.45,0,1,0,3.37,3.45A3.41,3.41,0,0,0,38.79,39.28ZM59.86,24a6.61,6.61,0,1,1,6.48-6.6A6.55,6.55,0,0,1,59.86,24Zm0-13a6.36,6.36,0,1,0,6.23,6.36A6.3,6.3,0,0,0,59.86,11Zm0,11.26a4.91,4.91,0,1,1,4.81-4.9A4.86,4.86,0,0,1,59.86,22.29Zm0-9.56a4.66,4.66,0,1,0,4.56,4.66A4.62,4.62,0,0,0,59.86,12.73ZM18.14,20.59A6.61,6.61,0,1,1,24.62,14,6.55,6.55,0,0,1,18.14,20.59Zm0-13A6.36,6.36,0,1,0,24.37,14,6.3,6.3,0,0,0,18.14,7.62Zm0,11.27A4.91,4.91,0,1,1,23,14,4.87,4.87,0,0,1,18.14,18.89Zm0-9.56A4.66,4.66,0,1,0,22.7,14,4.62,4.62,0,0,0,18.14,9.33Z"/></svg>