<svg id="Layer_1" data-name="Layer 1" xmlns="http://www.w3.org/2000/svg" viewBox="0 0 78 78"><defs><style>.cls-1{fill:#fff;}</style></defs><title>Artboard 6 copy 2</title><path class="cls-1" d="M29.41,32.91A1.12,1.12,0,0,0,28.29,34V70.34a1.12,1.12,0,0,0,2.24,0V34C30.41,33.41,30,32.91,29.41,32.91Zm-9.84,7A1.12,1.12,0,0,0,18.45,41v24.7a1.12,1.12,0,1,0,2.24,0V40.89A1.1,1.1,0,0,0,19.57,39.89Zm29.52-7A1.12,1.12,0,0,0,48,34V70.34a1.12,1.12,0,0,0,2.24,0V34A1.12,1.12,0,0,0,49.09,32.91Zm9.84,7A1.11,1.11,0,0,0,57.81,41v24.7a1.12,1.12,0,1,0,2.24,0V40.89A1.1,1.1,0,0,0,58.93,39.89ZM74.87,16.56C70.76,10.32,60.05,10.7,54.19,11H52.45c-4.23,0-12,.12-13,.12S30.28,11,26.17,11H24.43c-5.73-.25-16.57-.63-20.68,5.61C.14,22.05.14,27.67,3.63,31.91a14.49,14.49,0,0,0,10.71,5,11.43,11.43,0,0,0,4.11-.75,10.86,10.86,0,0,0,6.85-9.36c.25-3.49-1.12-6.73-3.61-8.36a8.9,8.9,0,0,0-9.59,0A6.18,6.18,0,0,0,9.36,24.8c.62,3.49,3,4.24,4,4.36A4.55,4.55,0,0,0,18,27a3.11,3.11,0,0,0-1-3.62,1.06,1.06,0,0,0-1.5,1.5c.25.25.62.87.5,1.12a2.28,2.28,0,0,1-2.37,1c-1.12-.12-1.86-1-2.11-2.62a4,4,0,0,1,1.74-4.12,6.6,6.6,0,0,1,7.22.13c1.87,1.12,2.87,3.62,2.62,6.36a8.88,8.88,0,0,1-5.48,7.49c-3.74,1.62-9.22,0-12.21-3.62s-2.74-8,.25-12.73c3.49-5.24,13.45-4.86,18.68-4.61h1.87c4.11,0,12.08.12,13.33.12h.25c1.24,0,8.72-.12,12.83-.12h1.86c5.36-.25,15.32-.63,18.69,4.61,3.11,4.75,3.11,9.24.25,12.73s-8.47,5.24-12.21,3.62a8.88,8.88,0,0,1-5.48-7.49,6.71,6.71,0,0,1,2.61-6.36,6.88,6.88,0,0,1,7.23-.13,3.81,3.81,0,0,1,1.74,4.12A2.84,2.84,0,0,1,65.16,27a2.5,2.5,0,0,1-2.37-1c-.13-.25.25-.74.5-1.12a1,1,0,0,0,0-1.5.94.94,0,0,0-1.5,0c-.74.63-1.74,2.25-1,3.62a4.53,4.53,0,0,0,4.6,2.12c1-.12,3.37-.87,4-4.36a6,6,0,0,0-2.74-6.37,8.9,8.9,0,0,0-9.59,0c-2.49,1.63-3.86,4.87-3.61,8.36a10.84,10.84,0,0,0,11,10.11,14.51,14.51,0,0,0,10.71-5C78.48,27.67,78.48,22.05,74.87,16.56ZM39.25,27.92A1.11,1.11,0,0,0,38.13,29V72.71a1.12,1.12,0,0,0,2.24,0V29A1,1,0,0,0,39.25,27.92Zm9.22-3.5a1.12,1.12,0,1,0,0-2.24H30a1.12,1.12,0,1,0,0,2.24Z"/></svg>