<svg id="Layer_1" data-name="Layer 1" xmlns="http://www.w3.org/2000/svg" viewBox="0 0 78 78"><defs><style>.cls-1{fill:#fff;}</style></defs><title>Artboard 1 copy 11</title><path class="cls-1" d="M12.23,19.26h8.56a.65.65,0,0,0,.65-.65V15.76a.65.65,0,0,0-.65-.64H12.23a.64.64,0,0,0-.64.64v2.85A.65.65,0,0,0,12.23,19.26Zm.65-2.85h7.27V18H12.88Zm45,17.3L30.62,18.55a.64.64,0,0,0-.63,0L19.54,24.37V21.46a.65.65,0,0,0-.65-.65H14.14a.65.65,0,0,0-.65.65v6.27l-10.74,6a.67.67,0,0,0-.31.39.7.7,0,0,0,.06.49.65.65,0,0,0,.88.25l4.4-2.45V66H1.26a.65.65,0,0,0-.64.65.65.65,0,0,0,.64.65H52.84V66l0-33.65,4.4,2.45a.66.66,0,0,0,.88-.25.61.61,0,0,0,.06-.49A.67.67,0,0,0,57.85,33.71ZM14.78,22.1h3.46v3L14.78,27ZM27.75,66h-12V56.49a6,6,0,0,1,12,0Zm23.78,0H29.05V56.49a7.31,7.31,0,0,0-14.61,0V66H9.08V31.65l2.18-1,7.94-4.54L30.3,19.9,51.53,31.67ZM45.52,49H33.15a.65.65,0,0,0-.64.65V63.09a.65.65,0,0,0,.64.65H45.52a.65.65,0,0,0,.64-.65V49.6A.65.65,0,0,0,45.52,49Zm-.65,13.5H33.8V57.09H44.87Zm0-6.65H33.8V50.25H44.87ZM14.51,31.6V43.09a.65.65,0,0,0,.64.65H45.52a.65.65,0,0,0,.64-.65V31.6a.65.65,0,0,0-.64-.65H15.15A.65.65,0,0,0,14.51,31.6Zm1.29.65H44.87V36.8H15.8Zm0,5.84H44.87v4.36H15.8Zm39.55-9.6,1.88,1a.65.65,0,0,0,.87-.25.64.64,0,0,0-.25-.88l-1.88-1a.64.64,0,0,0-.87.25.61.61,0,0,0-.06.49A.67.67,0,0,0,55.35,28.49ZM30,14.55h0l23.57,13a.67.67,0,0,0,.88-.26.64.64,0,0,0-.25-.87l-23.58-13A.64.64,0,1,0,30,14.55Z"/><rect class="cls-1" x="30.61" y="32" width="1.29" height="11.07"/><rect class="cls-1" x="39.86" y="49.93" width="1.29" height="13.07"/><path class="cls-1" d="M69.17,66.13H70.6v-8l.32,0c2.33-.1,4.6-.74,4.6-7.23,0-5.83-1.85-16.72-5.38-16.72s-5.37,10.78-5.37,16.56c0,3.15.48,5.09,1.51,6.12a4.54,4.54,0,0,0,2.6,1.2l.29,0v8.08m-8.06,0v-8l.32,0c2.33-.1,4.6-.74,4.6-7.23,0-5.83-1.85-16.72-5.37-16.72s-5.37,10.78-5.37,16.56c0,3.15.48,5.09,1.51,6.12A4.48,4.48,0,0,0,59.39,58l.29,0v8.08h1.43M60.39,51.4a.71.71,0,0,0-.71.72v4.51l-.41-.09a2.94,2.94,0,0,1-1.47-.71c-.89-.9-1.08-3.33-1.08-5.21,0-6.06,2.07-15,3.94-15,1.59,0,3.94,8,3.94,15.19,0,4.81-1.06,5.74-3.14,5.83l-.35,0V52.12A.72.72,0,0,0,60.39,51.4Zm9.49,0a.71.71,0,0,0-.71.72v4.51l-.41-.09a2.94,2.94,0,0,1-1.47-.71c-.89-.9-1.08-3.33-1.08-5.21,0-6.06,2.07-15,3.94-15,1.59,0,3.94,8,3.94,15.19,0,4.81-1.06,5.74-3.14,5.83l-.35,0V52.12A.72.72,0,0,0,69.88,51.4Z"/><rect class="cls-1" x="49.48" y="66.06" width="26.69" height="1.27" rx="0.64" ry="0.64"/></svg>