<svg xmlns="http://www.w3.org/2000/svg" viewBox="0 0 46.009 29">
  <defs>
    <style>
      .cls-1 {
        fill: #fff;
      }
    </style>
  </defs>
  <path id="Şekil_1" data-name="Şekil 1" class="cls-1" d="M9657.781,534.824l10.894-11.049h-40.447a1.279,1.279,0,0,1,0-2.556h40.447l-10.894-11.049c-1.16-1.126.6-2.967,1.766-1.792,4.3,4.36,8.645,8.72,12.945,13.08a1.122,1.122,0,0,1,.245.267,1.168,1.168,0,0,1,.249.761,1.09,1.09,0,0,1-.131.559,1.157,1.157,0,0,1-.507.585c-4.254,4.313-8.553,8.674-12.8,12.985a1.131,1.131,0,0,1-.834.385A1.294,1.294,0,0,1,9657.781,534.824Z" transform="translate(-9626.979 -508)"/>
</svg>
