<svg xmlns="http://www.w3.org/2000/svg" viewBox="0 0 17.002 7.989">
  <defs>
    <style>
      .cls-1 {
        fill: #6d6f7e;
      }
    </style>
  </defs>
  <path id="Şekil_1070_copy_2" data-name="Şekil 1070 copy 2" class="cls-1" d="M2353.781,853.4a1.052,1.052,0,0,0-1.474-.17l-6.8,5.4-6.8-5.4a1.05,1.05,0,0,0-1.306,1.645l7.441,5.907a.946.946,0,0,0,.139.071c.03.018.058.031.089.045a1.028,1.028,0,0,0,.872,0c.031-.015.06-.028.09-.045a1.032,1.032,0,0,0,.139-.071l7.44-5.907A1.053,1.053,0,0,0,2353.781,853.4Z" transform="translate(-2337.005 -853.001)"/>
</svg>
