<svg xmlns="http://www.w3.org/2000/svg" viewBox="0 0 79.995 82.001">
  <defs>
    <style>
      .cls-1 {
        fill: #e13675;
      }

      .cls-2 {
        fill: #ea3f24;
      }
    </style>
  </defs>
  <g id="Group_3" data-name="Group 3" transform="translate(-9685.005 -1077.999)">
    <path id="Şekil_9" data-name="Şekil 9" class="cls-1" d="M9738.623,1152.8A14.064,14.064,0,0,0,9751,1160a13.774,13.774,0,0,0,14-13.5,13.538,13.538,0,0,0-9.337-12.716l-1.867-.506a14.605,14.605,0,0,0-2.8-.281,13.775,13.775,0,0,0-14.006,13.5,13.077,13.077,0,0,0,.816,4.5M9751,1136a10.505,10.505,0,1,1-11.009,10.493A10.747,10.747,0,0,1,9751,1136Zm-1,2.99a1,1,0,0,0-1,1v6.993a1,1,0,0,0,1,1h5a1,1,0,1,0,0-2h-4v-5.993A1,1,0,0,0,9750,1138.994Z"/>
    <path id="Şekil_10" data-name="Şekil 10" class="cls-2" d="M9692.611,1153a7.645,7.645,0,0,1-7.606-7.664v-53.791a7.521,7.521,0,0,1,5.988-7.591L9691,1081a3.287,3.287,0,0,1,2.984-3h2.164a3.161,3.161,0,0,1,2.852,3l.015,1.983L9715,1083v-2a3.315,3.315,0,0,1,3-3h2a3.319,3.319,0,0,1,3,3l-.012,1.983L9739,1083v-2a3.317,3.317,0,0,1,3-3h2a3.314,3.314,0,0,1,3,3l0,2.9a7.787,7.787,0,0,1,6.991,7.642v53.791a7.643,7.643,0,0,1-7.6,7.664Zm-4.617-8.428a5.443,5.443,0,0,0,5.444,5.427h52.116a5.443,5.443,0,0,0,5.446-5.427V1104h-63.007Zm3-56.562c-2.306.553-3,1.743-3,4.374l0,8.609H9751v-8.57c0-2.73-1.171-3.994-4-4.415a3.315,3.315,0,0,1-3,3h-2a3.317,3.317,0,0,1-3-3v-2l-16.009-.012L9723,1088a3.319,3.319,0,0,1-3,3h-2a3.315,3.315,0,0,1-3-3v-2l-16.015-.012L9699,1088a3.314,3.314,0,0,1-3,3h-2a3.314,3.314,0,0,1-3-3Zm50-7.006v7a1.447,1.447,0,0,0,1,1h2a1.444,1.444,0,0,0,1-1v-7a1.444,1.444,0,0,0-1-1h-2A1.447,1.447,0,0,0,9741,1081Zm-24,0v7a1.44,1.44,0,0,0,1,1h2a1.446,1.446,0,0,0,1-1v-7a1.445,1.445,0,0,0-1-1h-2A1.44,1.44,0,0,0,9717,1081Zm-24,0v7a1.529,1.529,0,0,0,1,1h2a1.465,1.465,0,0,0,1-1v-7c0-.34-.7-1-1-1h-2A1.55,1.55,0,0,0,9693,1081Zm1.048,63.994-.059-34.986H9744l.034,34.986Zm38-2h9.987l-.037-8.979H9732Zm-12,0h9.985l-.042-8.979H9720Zm-12,0h9.987l-.049-8.979H9708Zm-12,0h9.985l-.052-8.979H9696ZM9732,1132.008H9742v-9.013H9732Zm-12,0h9.99v-9.013H9720Zm-12,0h9.99v-9.013H9708Zm-12,0h9.992v-9.013H9696Zm36-11.016H9742v-8.981H9732Zm-12,0h9.99v-8.981H9720Zm-12,0h9.99v-8.981H9708Zm-12,0h9.992v-8.981H9696Z"/>
    <rect id="Rectangle_3" data-name="Rectangle 3" class="cls-1" width="6" height="5" transform="translate(9710 1125)"/>
  </g>
</svg>
