<svg xmlns="http://www.w3.org/2000/svg" width="156" height="149" viewBox="0 0 156 149">
  <defs>
    <style>
      .cls-1 {
        fill: #ea3f24;
      }

      .cls-1, .cls-2 {
        fill-rule: evenodd;
      }

      .cls-2 {
        fill: #e13675;
      }
    </style>
  </defs>
  <path class="cls-1" d="M147.3,64.316a4.516,4.516,0,1,0-8.951,1.207,72,72,0,0,1,.569,8.922A64.442,64.442,0,1,1,74.473,9.836a63.9,63.9,0,0,1,41.521,15.212,4.541,4.541,0,0,0,3.286,1.019,4.348,4.348,0,0,0,3.01-1.587,4.592,4.592,0,0,0,1.046-3.33,4.372,4.372,0,0,0-1.583-3.02A72.711,72.711,0,0,0,74.473.736a73.71,73.71,0,1,0,73.518,73.71A63.969,63.969,0,0,0,147.3,64.316Z"/>
  <path id="Shape_2376_copy" data-name="Shape 2376 copy" class="cls-2" d="M65.227,104.455a4.761,4.761,0,0,0,6.544.332L154.143,29.3a4.885,4.885,0,0,0,.278-6.625,4.662,4.662,0,0,0-6.428-.066L69.038,94.861,39.246,62.277a4.622,4.622,0,0,0-3.4-1.446,5.039,5.039,0,0,0-3.208,1.162,4.865,4.865,0,0,0-.172,6.531Z"/>
</svg>
