<svg xmlns="http://www.w3.org/2000/svg" viewBox="0 0 34.012 26.007">
  <defs>
    <style>
      .cls-1 {
        fill: #afafaf;
      }
    </style>
  </defs>
  <path id="Shape_13" data-name="Shape 13" class="cls-1" d="M9293.81,2652c-1.741,0-3.814-.817-3.814-4.708V2629.96c0-2.52,1.666-3.967,4.577-3.967h25.618c3.362,0,3.816,2.006,3.816,3.967v17.333c0,3.891-2.073,4.708-3.816,4.708Zm-2.289-22.041v17.333c0,2.841,1.156,3.222,2.289,3.222h26.381c1.135,0,2.291-.382,2.291-3.222V2629.96c0-1.947-.491-2.48-2.291-2.48h-25.618C9292.518,2627.48,9291.521,2628.292,9291.521,2629.96Zm12.882,11.054-.079-.052-11.214-8.326.925-1.182,11.171,8.3a3.772,3.772,0,0,0,3.59,0l11.173-8.3.925,1.182-11.293,8.377a5.331,5.331,0,0,1-5.2,0Z" transform="translate(-9289.995 -2625.994)"/>
</svg>
