<svg xmlns="http://www.w3.org/2000/svg" viewBox="0 0 54 54">
  <defs>
    <style>
      .cls-1 {
        fill: #ccc;
      }
    </style>
  </defs>
  <path id="Property_Facilities_icon" data-name="Property Facilities icon" class="cls-1" d="M1091,1316a1,1,0,0,1-1-1v-40a1,1,0,0,1,1-1h15v-11a1,1,0,0,1,1-1h20a1,1,0,0,1,1,1v19h15a1,1,0,0,1,1,1v32a1,1,0,0,1-1,1Zm37-2h14v-30h-14v2h11a1,1,0,0,1,0,2h-11v2h11a1,1,0,1,1,0,2h-11v2h11a1,1,0,1,1,0,2h-11v2h11a1,1,0,1,1,0,2h-11v2h11a1,1,0,1,1,0,2h-11v2h11a1,1,0,0,1,0,2h-11v2h11a1,1,0,1,1,0,2h-11Zm-20,0h18v-50h-18Zm-16,0h14v-38h-14Zm30-3v-2a1,1,0,0,1,2,0v2a1,1,0,0,1-2,0Zm-4,0v-2a1,1,0,0,1,2,0v2a1,1,0,0,1-2,0Zm-4,0v-2a1,1,0,0,1,2,0v2a1,1,0,0,1-2,0Zm-4,0v-2a1,1,0,0,1,2,0v2a1,1,0,0,1-2,0Zm-8,0v-2a1,1,0,0,1,2,0v2a1,1,0,0,1-2,0Zm-4,0v-2a1,1,0,0,1,2,0v2a1,1,0,0,1-2,0Zm-4,0v-2a1,1,0,0,1,2,0v2a1,1,0,0,1-2,0Zm28-6v-2a1,1,0,0,1,2,0v2a1,1,0,1,1-2,0Zm-4,0v-2a1,1,0,0,1,2,0v2a1,1,0,1,1-2,0Zm-4,0v-2a1,1,0,0,1,2,0v2a1,1,0,1,1-2,0Zm-4,0v-2a1,1,0,0,1,2,0v2a1,1,0,0,1-2,0Zm-8,0v-2a1,1,0,0,1,2,0v2a1,1,0,0,1-2,0Zm-4,0v-2a1,1,0,0,1,2,0v2a1,1,0,0,1-2,0Zm-4,0v-2a1,1,0,0,1,2,0v2a1,1,0,0,1-2,0Zm8-5v-2a1,1,0,0,1,2,0v2a1,1,0,1,1-2,0Zm-4,0v-2a1,1,0,1,1,2,0v2a1,1,0,1,1-2,0Zm-4,0v-2a1,1,0,1,1,2,0v2a1,1,0,1,1-2,0Zm28-1v-2a1,1,0,1,1,2,0v2a1,1,0,0,1-2,0Zm-4,0v-2a1,1,0,1,1,2,0v2a1,1,0,0,1-2,0Zm-4,0v-2a1,1,0,1,1,2,0v2a1,1,0,0,1-2,0Zm-4,0v-2a1,1,0,0,1,2,0v2a1,1,0,0,1-2,0Zm-8-5v-2a1,1,0,1,1,2,0v2a1,1,0,0,1-2,0Zm-4,0v-2a1,1,0,1,1,2,0v2a1,1,0,0,1-2,0Zm-4,0v-2a1,1,0,1,1,2,0v2a1,1,0,0,1-2,0Zm28-1v-2a1,1,0,0,1,2,0v2a1,1,0,0,1-2,0Zm-4,0v-2a1,1,0,0,1,2,0v2a1,1,0,0,1-2,0Zm-4,0v-2a1,1,0,0,1,2,0v2a1,1,0,0,1-2,0Zm-4,0v-2a1,1,0,0,1,2,0v2a1,1,0,0,1-2,0Zm-8-5v-2a1,1,0,0,1,2,0v2a1,1,0,0,1-2,0Zm-4,0v-2a1,1,0,0,1,2,0v2a1,1,0,1,1-2,0Zm-4,0v-2a1,1,0,0,1,2,0v2a1,1,0,1,1-2,0Zm28-1v-2a1,1,0,0,1,2,0v2a1,1,0,1,1-2,0Zm-4,0v-2a1,1,0,0,1,2,0v2a1,1,0,1,1-2,0Zm-4,0v-2a1,1,0,0,1,2,0v2a1,1,0,1,1-2,0Zm-4,0v-2a1,1,0,0,1,2,0v2a1,1,0,0,1-2,0Zm-8-5v-2a1,1,0,0,1,2,0v2a1,1,0,1,1-2,0Zm-4,0v-2a1,1,0,1,1,2,0v2a1,1,0,1,1-2,0Zm-4,0v-2a1,1,0,1,1,2,0v2a1,1,0,1,1-2,0Zm28-1v-2a1,1,0,1,1,2,0v2a1,1,0,0,1-2,0Zm-4,0v-2a1,1,0,1,1,2,0v2a1,1,0,0,1-2,0Zm-4,0v-2a1,1,0,1,1,2,0v2a1,1,0,0,1-2,0Zm-4,0v-2a1,1,0,0,1,2,0v2a1,1,0,0,1-2,0Zm12-6v-2a1,1,0,0,1,2,0v2a1,1,0,0,1-2,0Zm-4,0v-2a1,1,0,0,1,2,0v2a1,1,0,0,1-2,0Zm-4,0v-2a1,1,0,0,1,2,0v2a1,1,0,0,1-2,0Zm-4,0v-2a1,1,0,0,1,2,0v2a1,1,0,0,1-2,0Zm12-6v-2a1,1,0,0,1,2,0v2a1,1,0,1,1-2,0Zm-4,0v-2a1,1,0,0,1,2,0v2a1,1,0,1,1-2,0Zm-4,0v-2a1,1,0,0,1,2,0v2a1,1,0,1,1-2,0Zm-4,0v-2a1,1,0,0,1,2,0v2a1,1,0,0,1-2,0Z" transform="translate(-1090 -1262)"/>
</svg>
