<svg xmlns="http://www.w3.org/2000/svg" viewBox="0 0 54.003 54">
  <defs>
    <style>
      .cls-1 {
        fill: #ccc;
      }
    </style>
  </defs>
  <path id="Shape_1391" data-name="Shape 1391" class="cls-1" d="M1090.763,2426a.673.673,0,0,1-.674-.674v-5.458a.673.673,0,0,1,.674-.675h1.158a3.737,3.737,0,0,1-.828-1.8l-.238-1.438a2.406,2.406,0,0,1,1.45-2.632v-2.2a2.733,2.733,0,0,0-.81-.105.674.674,0,0,1-.666-.577,3.353,3.353,0,0,1,.744-2.436,2.672,2.672,0,0,1-1.574-2.431v-.625a2.67,2.67,0,0,1,2.262-2.632v-1.86a2.533,2.533,0,0,1-1.211-.8,2.56,2.56,0,0,1-.544-2.11,11.011,11.011,0,0,1,10.805-8.967h8.106a10.963,10.963,0,0,1,10.7,8.48l.088.374a2.555,2.555,0,0,1-.483,2.179,2.528,2.528,0,0,1-1.162.813v1.89a2.67,2.67,0,0,1,2.266,2.633v.625a2.678,2.678,0,0,1-1.645,2.467,4.172,4.172,0,0,1,.822,2.309.675.675,0,0,1-.674.668,2.792,2.792,0,0,0-.724.086v2.246a2.426,2.426,0,0,1,1.365,2.6l-.239,1.438a3.737,3.737,0,0,1-.829,1.8h4.14a1.971,1.971,0,0,1-.234-.918v-31.124a8.22,8.22,0,0,1,3.365-6.494c.536-.41,1-.708,1.416-.971,1.018-.649,1.436-.919,1.517-1.944h-.056a1.447,1.447,0,0,1-1.445-1.448v-2.846a1.448,1.448,0,0,1,1.445-1.448h7.32a1.448,1.448,0,0,1,1.445,1.448v2.846a1.444,1.444,0,0,1-1.316,1.435c.072,1.079.51,1.384,1.539,2.074.4.269.857.574,1.367.984a8.2,8.2,0,0,1,3.206,6.366v31.125a1.976,1.976,0,0,1-.233.918h.945a.675.675,0,0,1,.675.675v5.457a.674.674,0,0,1-.675.674Zm.674-1.35h51.217v-4.106h-51.217Zm.989-9.792a1.087,1.087,0,0,0-.241.875l.239,1.439a2.385,2.385,0,0,0,2.359,2h21.263a2.385,2.385,0,0,0,2.358-2l.24-1.438a1.088,1.088,0,0,0-.241-.876,1.074,1.074,0,0,0-.621-.36h-3.125a4.523,4.523,0,0,0-3.222,1.336l-1.75,1.752a.673.673,0,0,1-.953,0l-1.75-1.752a4.529,4.529,0,0,0-3.224-1.336h-10.711A1.071,1.071,0,0,0,1092.426,2414.858Zm31.733,3.417a.976.976,0,0,0,1.058.823h14.993a.977.977,0,0,0,1.058-.823v-14.332h-17.11Zm-30.506-5.127h10.105a5.858,5.858,0,0,1,4.175,1.732l1.275,1.276,1.274-1.276a5.859,5.859,0,0,1,4.175-1.732h2.6v-1.455a4.331,4.331,0,0,1-3.461-.294,2.919,2.919,0,0,0-2.861,0,4.265,4.265,0,0,1-4.1,0,2.919,2.919,0,0,0-2.861,0,4.263,4.263,0,0,1-4.1,0,2.916,2.916,0,0,0-2.859,0,3.917,3.917,0,0,1-2.048.525,3.971,3.971,0,0,1-1.321-.2Zm20.767-2.948a2.924,2.924,0,0,0,2.863,0,4.027,4.027,0,0,1,1.267-.464,3.034,3.034,0,0,0-1.018-1.484h-24.17a.589.589,0,0,1-.051.044,2.142,2.142,0,0,0-1.109,1.427,3.986,3.986,0,0,1,1.343.475,2.918,2.918,0,0,0,2.86,0,4.256,4.256,0,0,1,4.1,0,2.914,2.914,0,0,0,2.858,0,4.257,4.257,0,0,1,4.1,0,2.918,2.918,0,0,0,2.861,0,4.26,4.26,0,0,1,4.1,0Zm-23.074-4.62a1.324,1.324,0,0,0,1.322,1.323h8.982a.67.67,0,0,1-.466-.2l-1.842-1.845a4.207,4.207,0,0,0-3-1.246h-3.273a.708.708,0,0,1-.076.015h-.324a1.322,1.322,0,0,0-1.321,1.323h0Zm12.634-.719-1.842,1.846a.67.67,0,0,1-.466.2h16.49a1.323,1.323,0,0,0,1.321-1.323v-.624a1.324,1.324,0,0,0-1.321-1.324.684.684,0,0,1-.174-.035.663.663,0,0,1-.1.02h-10.908A4.216,4.216,0,0,0,1103.98,2404.86Zm-10.372-2.594h2.734a5.55,5.55,0,0,1,3.954,1.64l1.366,1.368,1.364-1.368a5.552,5.552,0,0,1,3.955-1.64h10.236v-1.674h-23.609Zm30.551.327h17.11v-12.839h-17.11Zm-32.329-4.789a1.211,1.211,0,0,0,1.189,1.437h24.7a1.211,1.211,0,0,0,1.177-1.491l-.089-.374a9.617,9.617,0,0,0-9.39-7.439h-8.106A9.66,9.66,0,0,0,1091.831,2397.8Zm36.485-16.979c-.389.248-.831.528-1.319.9a6.887,6.887,0,0,0-2.838,5.424v1.252h17.11v-1.252a6.772,6.772,0,0,0-2.7-5.312c-.467-.374-.9-.662-1.277-.915-1.129-.757-2.024-1.38-2.13-3.183h-4.713C1130.324,2379.523,1129.434,2380.112,1128.316,2380.825Zm.641-7.377v2.846a.1.1,0,0,0,.1.1h7.322a.1.1,0,0,0,.1-.1v-2.846a.1.1,0,0,0-.1-.1h-7.321A.1.1,0,0,0,1128.956,2373.448Zm-25.361,21.491a.675.675,0,0,1,.387-.872l.56-.215a.675.675,0,0,1,.483,1.26l-.561.216a.661.661,0,0,1-.24.044A.672.672,0,0,1,1103.6,2394.939Zm-3.457-.2-.594-.087a.675.675,0,0,1,.2-1.335l.593.088a.675.675,0,0,1-.1,1.342A.75.75,0,0,1,1100.138,2394.735Zm9.133-.043-.594-.087a.678.678,0,0,1-.57-.766.668.668,0,0,1,.766-.57l.593.087a.675.675,0,0,1-.1,1.343A.73.73,0,0,1,1109.272,2394.692Zm3.151-1.327a.676.676,0,0,1,.389-.872l.561-.215a.675.675,0,0,1,.482,1.262l-.561.215a.7.7,0,0,1-.241.044A.676.676,0,0,1,1112.422,2393.365Zm-15.725-.638a.674.674,0,0,1,.388-.872l.561-.215a.676.676,0,0,1,.481,1.263l-.561.214a.662.662,0,0,1-.24.044A.676.676,0,0,1,1096.7,2392.728Zm8.969-.107a.676.676,0,0,1,.387-.872l.56-.215a.675.675,0,0,1,.484,1.26l-.56.215a.671.671,0,0,1-.871-.388Zm-3.3.093-.392-.455a.674.674,0,1,1,1.019-.884l.392.455a.674.674,0,1,1-1.019.884Zm7.422-.227-.393-.454a.675.675,0,0,1,1.02-.885l.392.454a.675.675,0,1,1-1.019.885Z" transform="translate(-1089.999 -2372)"/>
</svg>
