<svg xmlns="http://www.w3.org/2000/svg" viewBox="0 0 70 91.008">
  <defs>
    <style>
      .cls-1 {
        fill: #ea3f24;
      }

      .cls-2 {
        fill: #e13675;
      }
    </style>
  </defs>
  <g id="Group_1" data-name="Group 1" transform="translate(-8747.998 -1072.989)">
    <path id="Shape_1" data-name="Shape 1" class="cls-1" d="M8774.488,1164a2.2,2.2,0,0,1,0-4.393h3.622v-11.078a38.13,38.13,0,0,1-15.124-3.48,2.21,2.21,0,0,1-1.082-2.908,2.162,2.162,0,0,1,2.875-1.093,33.883,33.883,0,0,0,14.228,3.1c19.107,0,34.651-15.816,34.651-35.258a35.1,35.1,0,0,0-19.519-31.728,2.208,2.208,0,0,1-1-2.937,2.16,2.16,0,0,1,2.9-1.009A39.466,39.466,0,0,1,8818,1108.885c0,20.685-15.654,37.719-35.548,39.5V1159.6h4.336a2.2,2.2,0,0,1,0,4.393Z"/>
    <path id="Shape_2" data-name="Shape 2" class="cls-2" d="M8777.947,1139.227a1.83,1.83,0,0,1,0-3.66c14.528,0,26.348-12.072,26.348-26.912a26.884,26.884,0,0,0-19.365-25.957,1.834,1.834,0,0,1-1.258-2.25,1.794,1.794,0,0,1,2.214-1.278,30.544,30.544,0,0,1,22.012,29.485C8807.9,1125.513,8794.462,1139.227,8777.947,1139.227Zm-7.271-.968a1.786,1.786,0,0,1-.467-.063A30.5,30.5,0,0,1,8748,1108.655c0-16.857,13.434-30.573,29.949-30.573a1.83,1.83,0,0,1,0,3.66c-14.528,0-26.348,12.073-26.348,26.913a26.846,26.846,0,0,0,19.542,26.005,1.832,1.832,0,0,1,1.273,2.242A1.807,1.807,0,0,1,8770.676,1138.259Z"/>
  </g>
</svg>
