<svg xmlns="http://www.w3.org/2000/svg" xmlns:xlink="http://www.w3.org/1999/xlink" width="31.309" height="28.584" viewBox="0 0 31.309 28.584">
  <defs>
    <linearGradient id="linear-gradient" x1="0.136" y1="1.25" x2="0.864" y2="-0.25" gradientUnits="objectBoundingBox">
      <stop offset="0" stop-color="#ff4d1d"/>
      <stop offset="0.003" stop-color="#ff4d1d"/>
      <stop offset="1" stop-color="#f30e75"/>
    </linearGradient>
  </defs>
  <path id="Shape_2145" data-name="Shape 2145" d="M13917.449,240.627a5.852,5.852,0,0,0-5.844,6.046c.064,4.745,4.091,8.094,7.985,11.334a4.669,4.669,0,0,0,9.3,0c3.9-3.254,7.934-6.619,8-11.367a5.812,5.812,0,0,0-4.416-5.836c-2.174-.549-5.127.074-6.891,3.473a1.5,1.5,0,0,1-2.672,0,6.087,6.087,0,0,0-5.461-3.647m6.8,25.555a1.506,1.506,0,0,1-1.245-.658,28.882,28.882,0,0,0-5.333-5.2c-4.215-3.5-8.993-7.477-9.076-13.612a8.806,8.806,0,0,1,6.7-8.839,14.9,14.9,0,0,0,17.913,0,8.774,8.774,0,0,1,6.691,8.8c-.083,6.135-4.865,10.124-9.082,13.643a29.065,29.065,0,0,0-5.328,5.2,1.5,1.5,0,0,1-1.242.658" transform="translate(-13908.592 -237.599)" fill="url(#linear-gradient)"/>
</svg>
