<svg xmlns="http://www.w3.org/2000/svg" viewBox="0 0 25.046 22.872">
  <defs>
    <style>
      .cls-1 {
        fill: #fff;
      }
    </style>
  </defs>
  <path id="Shape_2145" data-name="Shape 2145" class="cls-1" d="M2289.809,635.88a4.682,4.682,0,0,0-4.676,4.836c.052,3.8,3.274,6.476,6.389,9.067a35.443,35.443,0,0,1,3.724,3.4,35.738,35.738,0,0,1,3.716-3.4c3.12-2.6,6.346-5.3,6.4-9.094a4.649,4.649,0,0,0-3.533-4.669,4.774,4.774,0,0,0-5.512,2.779,1.2,1.2,0,0,1-2.137,0,4.868,4.868,0,0,0-4.369-2.918m5.438,20.444a1.2,1.2,0,0,1-.995-.526,23.12,23.12,0,0,0-4.267-4.156c-3.372-2.8-7.193-5.982-7.26-10.89a7.055,7.055,0,0,1,12.522-4.677,8.1,8.1,0,0,1,1.921-1.648,6.663,6.663,0,0,1,5.249-.747,7.02,7.02,0,0,1,5.353,7.044c-.067,4.908-3.892,8.1-7.265,10.914a23.248,23.248,0,0,0-4.262,4.161,1.205,1.205,0,0,1-1,.526" transform="translate(-2282.724 -633.453)"/>
</svg>
