<svg xmlns="http://www.w3.org/2000/svg" xmlns:xlink="http://www.w3.org/1999/xlink" viewBox="0 0 32 28"><defs><style>.cls-1{fill:url(#New_Gradient_Swatch);}</style><linearGradient id="New_Gradient_Swatch" x1="2.99" y1="24.99" x2="23.48" y2="-0.68" gradientUnits="userSpaceOnUse"><stop offset="0" stop-color="#ed4d38"/><stop offset="1" stop-color="#eb2271"/></linearGradient></defs><g id="Layer_2" data-name="Layer 2"><g id="Layer_1-2" data-name="Layer 1"><path class="cls-1" d="M29.5,14.91,17.41,27.39A1.94,1.94,0,0,1,16,28a2,2,0,0,1-1.41-.61L2.49,14.91a9,9,0,0,1,.62-13c4-3.38,9.11-1.79,11.66.85L16,4l1.23-1.28a8.55,8.55,0,0,1,11.66-.84A9,9,0,0,1,29.5,14.91ZM27.59,3.44c-3.41-2.9-7.47-.78-8.92.72L16,6.92,13.33,4.16C11.86,2.64,7.83.52,4.41,3.44a7,7,0,0,0-.48,10.08L16,26l12-12.49A7,7,0,0,0,27.59,3.44Z"/></g></g></svg>