<svg xmlns="http://www.w3.org/2000/svg" viewBox="0 0 22.332 29.364">
  <defs>
    <style>
      .cls-1 {
        fill: #afafaf;
      }
    </style>
  </defs>
  <path id="Şekil_2" data-name="Şekil 2" class="cls-1" d="M10927.343,537.612a3.038,3.038,0,0,1-2.051-1.178l-.752-.972c-3.144-4.058-7.9-10.191-7.841-15.879a11.481,11.481,0,0,1,3.35-8.049,10.974,10.974,0,0,1,7.92-3.264l.053,0a10.944,10.944,0,0,1,7.829,3.437,11.51,11.51,0,0,1,3.18,8.121c-.063,5.664-4.942,11.7-8.171,15.684-.271.338-.535.662-.776.966a3.28,3.28,0,0,1-.478.478,3,3,0,0,1-1.895.675A2.759,2.759,0,0,1,10927.343,537.612Zm-9.266-18.015c-.049,5.189,4.521,11.083,7.544,14.987l.756.975a1.663,1.663,0,0,0,2.374.288,1.57,1.57,0,0,0,.264-.266c.244-.3.508-.629.782-.966,3.105-3.838,7.8-9.636,7.85-14.8a10.081,10.081,0,0,0-2.784-7.119,9.6,9.6,0,0,0-6.88-3.012l-.017-.708-.008.708-.1,0A9.911,9.911,0,0,0,10918.077,519.6Zm3.8-.049a5.988,5.988,0,1,1,5.987,6.133A6.067,6.067,0,0,1,10921.877,519.548Zm1.381,0a4.607,4.607,0,1,0,4.606-4.719A4.668,4.668,0,0,0,10923.258,519.548Z" transform="translate(-10916.699 -508.27)"/>
</svg>
