<svg xmlns="http://www.w3.org/2000/svg" viewBox="0 0 26.999 27.012">
  <defs>
    <style>
      .cls-1 {
        fill: #afafaf;
      }
    </style>
  </defs>
  <path id="Shape_14" data-name="Shape 14" class="cls-1" d="M8840.677,2757.221l-16.487,16.5a.458.458,0,0,0-.1.153h0l-3.05,8.518a.435.435,0,0,0,.574.575l8.506-3.048h0a.425.425,0,0,0,.152-.1l15.064-15.068h0l1.434-1.433a4.311,4.311,0,0,0-6.095-6.1ZM8830,2778l-4-4,14-14,4,4Zm-5-3,4,4-6,2Zm21-13-1,1-4-4,1-1a2.828,2.828,0,0,1,4,4Z" transform="translate(-8821.003 -2755.989)"/>
</svg>
