<svg xmlns="http://www.w3.org/2000/svg" width="64" height="64" viewBox="0 0 64 64">
  <metadata><?xpacket begin="﻿" id="W5M0MpCehiHzreSzNTczkc9d"?>
<x:xmpmeta xmlns:x="adobe:ns:meta/" x:xmptk="Adobe XMP Core 5.6-c138 79.159824, 2016/09/14-01:09:01        ">
   <rdf:RDF xmlns:rdf="http://www.w3.org/1999/02/22-rdf-syntax-ns#">
      <rdf:Description rdf:about=""/>
   </rdf:RDF>
</x:xmpmeta>
                                                                                                    
                                                                                                    
                                                                                                    
                                                                                                    
                                                                                                    
                                                                                                    
                                                                                                    
                                                                                                    
                                                                                                    
                                                                                                    
                                                                                                    
                                                                                                    
                                                                                                    
                                                                                                    
                                                                                                    
                                                                                                    
                                                                                                    
                                                                                                    
                                                                                                    
                                                                                                    
                           
<?xpacket end="w"?></metadata>
<defs>
    <style>
      .cls-1 {
        fill: #ccc;
        fill-rule: evenodd;
      }
    </style>
  </defs>
  <path class="cls-1" d="M48.7,35.9H15.3a1,1,0,0,0,0,2H48.6a0.945,0.945,0,0,0,1-1A0.924,0.924,0,0,0,48.7,35.9Zm-3.3,5.6H18.6a1,1,0,1,0,0,2H45.4A1,1,0,1,0,45.4,41.5Zm-18.1-17L26.5,29a0.95,0.95,0,0,0,.4,1,1.074,1.074,0,0,0,1.1.1L32,28l4,2.1a1.106,1.106,0,0,0,1.1-.1,0.951,0.951,0,0,0,.4-1l-0.8-4.5L40,21.3a1.015,1.015,0,0,0,.3-1,0.969,0.969,0,0,0-.8-0.7L35,18.9l-2-4.1a1.151,1.151,0,0,0-.9-0.6,0.961,0.961,0,0,0-.9.6l-2,4.1-4.5.7a0.968,0.968,0,0,0-.8.7,0.9,0.9,0,0,0,.3,1Zm2.6-3.7a1.373,1.373,0,0,0,.8-0.5l1.4-2.7,1.4,2.7a0.791,0.791,0,0,0,.8.5l3,0.4-2.2,2.1a1.4,1.4,0,0,0-.3.9l0.5,3-2.7-1.4a0.75,0.75,0,0,0-.9,0L29,27.2l0.5-3a1.009,1.009,0,0,0-.3-0.9L27,21.2ZM60,7H4a4.148,4.148,0,0,0-4,4.3V54.7A4.148,4.148,0,0,0,4,59H60a4.148,4.148,0,0,0,4-4.3V11.3A4.148,4.148,0,0,0,60,7Zm2,41.2H52.2a1,1,0,1,0,0,2H62v4.5A2.15,2.15,0,0,1,60,57H4a2.15,2.15,0,0,1-2-2.3V50.2H47.2a1,1,0,0,0,0-2H2V11.3A2.15,2.15,0,0,1,4,9H60a2.15,2.15,0,0,1,2,2.3V48.2Z"/>
</svg>
