<svg xmlns="http://www.w3.org/2000/svg" xmlns:xlink="http://www.w3.org/1999/xlink" viewBox="0 0 32 32"><defs><style>.cls-1{fill:url(#New_Gradient_Swatch);}</style><linearGradient id="New_Gradient_Swatch" y1="16" x2="32" y2="16" gradientUnits="userSpaceOnUse"><stop offset="0" stop-color="#ed4d38"/><stop offset="1" stop-color="#eb2271"/></linearGradient></defs><g id="Layer_2" data-name="Layer 2"><g id="Layer_1-2" data-name="Layer 1"><path class="cls-1" d="M32,27a5,5,0,0,1-5,5H6S0,25.31,0,22a6,6,0,0,1,12,0c0,2.16-2.56,5.76-4.33,8H27a3,3,0,0,0,0-6H20a5,5,0,0,1,0-10h4.33C22.56,11.76,20,8.16,20,6A6,6,0,0,1,32,6c0,3.31-6,10-6,10H20a3,3,0,0,0,0,6h7A5,5,0,0,1,32,27ZM6,28.9c2.12-2.65,4-5.63,4-6.9a4,4,0,0,0-8,0C2,23.24,3.88,26.24,6,28.9ZM6,23a1,1,0,0,1,0-2A1,1,0,0,1,6,23ZM26,12.9c2.12-2.65,4-5.63,4-6.9a4,4,0,0,0-8,0C22,7.24,23.88,10.24,26,12.9ZM26,7a1,1,0,0,1,0-2A1,1,0,0,1,26,7Z"/></g></g></svg>