<svg xmlns="http://www.w3.org/2000/svg" xmlns:xlink="http://www.w3.org/1999/xlink" width="31.976" height="30.964" viewBox="0 0 31.976 30.964">
  <defs>
    <linearGradient id="linear-gradient" x1="0.114" y1="1.25" x2="0.886" y2="-0.25" gradientUnits="objectBoundingBox">
      <stop offset="0" stop-color="#ff4d1d"/>
      <stop offset="0.003" stop-color="#ff4d1d"/>
      <stop offset="1" stop-color="#f30e75"/>
    </linearGradient>
  </defs>
  <path id="Shape_2145" data-name="Shape 2145" d="M13926.39,200.683h-18.377v-2.442h18.377a4.454,4.454,0,0,1,8.579,0h5.02v2.442h-5.02a4.469,4.469,0,0,1-3.1,3.121,4.436,4.436,0,0,1-5.479-3.121Zm2.264-1.221a2.024,2.024,0,1,0,2.025-2.033A2.032,2.032,0,0,0,13928.653,199.462Zm-15.62-9.768h-5.021v-2.442h5.021a4.453,4.453,0,0,1,8.578,0h18.377v2.442h-18.377a4.444,4.444,0,0,1-8.578,0Zm2.267-1.221a2.022,2.022,0,1,0,2.022-2.036A2.025,2.025,0,0,0,13915.3,188.473Zm11.09-9.75h-18.377v-2.452h18.377a4.449,4.449,0,0,1,8.579,0h5.02v2.452h-5.02a4.472,4.472,0,0,1-3.1,3.128,4.4,4.4,0,0,1-1.192.165A4.459,4.459,0,0,1,13926.39,178.723Zm2.264-1.224a2.024,2.024,0,1,0,2.025-2.043A2.035,2.035,0,0,0,13928.653,177.5Z" transform="translate(-13908.013 -173.003)" fill="url(#linear-gradient)"/>
</svg>
