<svg xmlns="http://www.w3.org/2000/svg" xmlns:xlink="http://www.w3.org/1999/xlink" viewBox="0 0 80.995 13.004">
  <defs>
    <style>
      .cls-1 {
        fill: url(#linear-gradient);
      }
    </style>
    <linearGradient id="linear-gradient" x1="0.457" y1="1" x2="0.543" gradientUnits="objectBoundingBox">
      <stop offset="0" stop-color="#ff4d1d"/>
      <stop offset="0.003" stop-color="#ff4d1d"/>
      <stop offset="1" stop-color="#f30e75"/>
    </linearGradient>
  </defs>
  <path id="stroke_stars" data-name="stroke stars" class="cls-1" d="M2047.74,531.925l-3.259-1.8-3.259,1.8a.656.656,0,0,1-.319.083.648.648,0,0,1-.4-.137.732.732,0,0,1-.275-.7l.617-3.806-2.641-2.705a.778.778,0,0,1-.172-.739.681.681,0,0,1,.549-.488l3.636-.559,1.63-3.462a.711.711,0,0,1,.617-.4.68.68,0,0,1,.617.4l1.629,3.462,3.637.559a.824.824,0,0,1,.6.488.741.741,0,0,1-.173.739l-2.641,2.705.617,3.806a.771.771,0,0,1-.274.7.716.716,0,0,1-.411.144A.684.684,0,0,1,2047.74,531.925Zm-17-.031-3.266-1.8-3.267,1.8a.643.643,0,0,1-.319.083.654.654,0,0,1-.4-.136.733.733,0,0,1-.275-.7l.619-3.8-2.648-2.7a.775.775,0,0,1-.172-.738.68.68,0,0,1,.55-.485l3.645-.558,1.633-3.454a.713.713,0,0,1,.618-.4.68.68,0,0,1,.619.4l1.633,3.454,3.645.558a.825.825,0,0,1,.6.485.737.737,0,0,1-.173.738l-2.647,2.7.618,3.8a.769.769,0,0,1-.275.7.72.72,0,0,1-.411.144A.691.691,0,0,1,2030.744,531.894Zm-16.988,0-3.266-1.8-3.267,1.8a.641.641,0,0,1-.319.083.656.656,0,0,1-.4-.136.73.73,0,0,1-.274-.7l.618-3.8-2.648-2.7a.777.777,0,0,1-.172-.738.68.68,0,0,1,.55-.485l3.645-.558,1.633-3.454a.714.714,0,0,1,.619-.4.679.679,0,0,1,.618.4l1.633,3.454,3.645.558a.825.825,0,0,1,.6.485.737.737,0,0,1-.173.738l-2.647,2.7.618,3.8a.768.768,0,0,1-.275.7.727.727,0,0,1-.412.144A.691.691,0,0,1,2013.755,531.894Zm-17.018,0-3.267-1.8-3.266,1.8a.663.663,0,0,1-.723-.053.732.732,0,0,1-.275-.7l.619-3.8-2.648-2.7a.777.777,0,0,1-.172-.738.678.678,0,0,1,.55-.485l3.645-.558,1.634-3.454a.712.712,0,0,1,.619-.4.68.68,0,0,1,.618.4l1.634,3.454,3.645.558a.822.822,0,0,1,.6.485.735.735,0,0,1-.172.738l-2.648,2.7.62,3.8a.771.771,0,0,1-.276.7.723.723,0,0,1-.412.144A.685.685,0,0,1,1996.737,531.894Zm-16.989,0-3.266-1.8-3.266,1.8a.663.663,0,0,1-.723-.053.732.732,0,0,1-.275-.7l.619-3.8-2.648-2.7a.777.777,0,0,1-.172-.738.678.678,0,0,1,.55-.485l3.646-.558,1.633-3.454a.712.712,0,0,1,.619-.4.679.679,0,0,1,.618.4l1.634,3.454,3.645.558a.82.82,0,0,1,.6.485.737.737,0,0,1-.172.738l-2.648,2.7.62,3.8a.77.77,0,0,1-.276.7.728.728,0,0,1-.413.144A.688.688,0,0,1,1979.748,531.894Z" transform="translate(-1969.988 -519.011)"/>
</svg>
