<svg xmlns="http://www.w3.org/2000/svg" viewBox="0 0 36.999 30.973">
  <defs>
    <style>
      .cls-1 {
        fill: #fff;
      }
    </style>
  </defs>
  <path id="Shape_1393" data-name="Shape 1393" class="cls-1" d="M1025.105,940.217H1008.25c-3.272,0-6.25-3.139-6.25-6.588V919.441c0-3.178,2.687-5.574,6.25-5.574h25.375c3.266,0,5.374,2.188,5.374,5.574v14.188c0,3.151-2.267,6.523-5.651,6.587a7.289,7.289,0,0,0,3.052,2.669,1.019,1.019,0,0,1,.581,1.112,1,1,0,0,1-.932.831s-.228.012-.617.012C1033.369,944.84,1026.807,944.492,1025.105,940.217ZM1004,919.441v14.188a4.713,4.713,0,0,0,4.25,4.561h17.583a1,1,0,0,1,.974.779c.557,2.374,3.481,3.285,5.818,3.632a6.1,6.1,0,0,1-1.653-3.245,1.022,1.022,0,0,1,.229-.814.994.994,0,0,1,.759-.354h1.291c2.243,0,3.75-2.358,3.75-4.561V919.441c0-2.287-1.2-3.547-3.374-3.547H1008.25C1006.19,915.894,1004,917.138,1004,919.441Zm6.25,12.669a1.014,1.014,0,0,1,0-2.028h21a1.014,1.014,0,0,1,0,2.028Zm0-4.055a1.013,1.013,0,0,1,0-2.027h21a1.013,1.013,0,0,1,0,2.027Zm0-4.054a1.014,1.014,0,0,1,0-2.028h21a1.014,1.014,0,0,1,0,2.028Zm-5.243-3.428a3.13,3.13,0,0,1,3.1-3.794,1.013,1.013,0,0,1,0,2.027,1.419,1.419,0,0,0-.9.387,1.47,1.47,0,0,0-.212,1.14,1.009,1.009,0,0,1-.875,1.125.768.768,0,0,1-.12.009A1.007,1.007,0,0,1,1005.007,920.574Z" transform="translate(-1002.001 -913.867)"/>
</svg>
