<svg xmlns="http://www.w3.org/2000/svg" viewBox="0 0 87.505 59.484">
  <defs>
    <style>
      .cls-1 {
        fill: #ea3f24;
      }

      .cls-2 {
        fill: #e13675;
      }
    </style>
  </defs>
  <g id="Group_2" data-name="Group 2" transform="translate(-9207.741 -1092.759)">
    <path id="Shape_3" data-name="Shape 3" class="cls-1" d="M9295.246,1152.243h-26.037a1.394,1.394,0,1,1,0-2.787h23.246v-14.791a12.3,12.3,0,0,1,0-24.328v-14.79h-23.062a1.394,1.394,0,1,1,0-2.787h25.854v20.2l-1.35.044a9.5,9.5,0,0,0,0,18.99l1.35.043Zm-33.235,0h-54.27v-20.2l1.1-.236a9.528,9.528,0,0,0,0-18.606l-1.105-.235v-20.2h54.207a1.394,1.394,0,1,1,0,2.787h-51.415v15.217a12.322,12.322,0,0,1,0,23.475v15.217h51.478a1.394,1.394,0,1,1,0,2.787Z"/>
    <path id="Shape_4" data-name="Shape 4" class="cls-2" d="M9265.5,1148.74a1.649,1.649,0,0,1-1.649-1.65v-.66a1.65,1.65,0,0,1,3.3,0v.66A1.65,1.65,0,0,1,9265.5,1148.74Zm0-9.9a1.65,1.65,0,0,1-1.649-1.65v-2.64a1.65,1.65,0,0,1,3.3,0v2.64A1.65,1.65,0,0,1,9265.5,1138.84Zm0-11.88a1.65,1.65,0,0,1-1.649-1.65v-2.64a1.65,1.65,0,0,1,3.3,0v2.64A1.65,1.65,0,0,1,9265.5,1126.96Zm0-11.88a1.649,1.649,0,0,1-1.649-1.65v-2.64a1.65,1.65,0,0,1,3.3,0v2.64A1.65,1.65,0,0,1,9265.5,1115.08Zm0-11.88a1.649,1.649,0,0,1-1.649-1.65v-2.64a1.65,1.65,0,0,1,3.3,0v2.64A1.65,1.65,0,0,1,9265.5,1103.2Z"/>
  </g>
</svg>
