<svg xmlns="http://www.w3.org/2000/svg" viewBox="0 0 26.994 27.009">
  <defs>
    <style>
      .cls-1 {
        fill: #afafaf;
      }
    </style>
  </defs>
  <path id="Shape_12" data-name="Shape 12" class="cls-1" d="M8822.01,2651.295v-.524a8.337,8.337,0,0,1,4.963-7.509.765.765,0,0,1,1,.337.7.7,0,0,1-.354.955,6.908,6.908,0,0,0-4.11,6.216v.524a.751.751,0,0,1-1.5,0Zm25.49,0v-.524a6.9,6.9,0,0,0-4.108-6.211.7.7,0,0,1-.354-.957.768.768,0,0,1,1-.337,8.328,8.328,0,0,1,4.964,7.506v.524a.753.753,0,0,1-1.5,0ZM8825.008,2635a10.514,10.514,0,1,1,10.5,10A10.268,10.268,0,0,1,8825.008,2635Zm2,0a8.512,8.512,0,1,0,8.5-8A8.268,8.268,0,0,0,8827.009,2635Z" transform="translate(-8822.01 -2625)"/>
</svg>
