<svg xmlns="http://www.w3.org/2000/svg" viewBox="0 0 20.54 20.01"><defs><style>.cls-1{fill:#e05d30;}</style></defs><g id="Layer_2" data-name="Layer 2"><g id="Layer_1-2" data-name="Layer 1"><path class="cls-1" d="M20.19,7.41A1,1,0,0,0,19,6.68a1,1,0,0,0-.76,1.13l0,.1a8.07,8.07,0,0,1-5.88,9.92A8.33,8.33,0,0,1,2.24,12.1,8.07,8.07,0,0,1,8.11,2.18a8.54,8.54,0,0,1,7.06,1.28,1,1,0,0,0,1.37-.21.94.94,0,0,0-.22-1.33h0a10.47,10.47,0,0,0-6-1.92H9.89A11.1,11.1,0,0,0,7.61.34,10,10,0,0,0,.35,12.6a10.33,10.33,0,0,0,12.58,7.07A10,10,0,0,0,20.19,7.41ZM14,11.06A1.08,1.08,0,0,0,13,10H11c-.05-4.24.06-1.21,0-5A1,1,0,0,0,9,5c.06,4-.06,2,0,6a1.1,1.1,0,0,0,1,1h3A1,1,0,0,0,14,11.06Z"/></g></g></svg>