<svg xmlns="http://www.w3.org/2000/svg" width="64" height="64" viewBox="0 0 64 64">
  <metadata><?xpacket begin="﻿" id="W5M0MpCehiHzreSzNTczkc9d"?>
<x:xmpmeta xmlns:x="adobe:ns:meta/" x:xmptk="Adobe XMP Core 5.6-c138 79.159824, 2016/09/14-01:09:01        ">
   <rdf:RDF xmlns:rdf="http://www.w3.org/1999/02/22-rdf-syntax-ns#">
      <rdf:Description rdf:about=""/>
   </rdf:RDF>
</x:xmpmeta>
                                                                                                    
                                                                                                    
                                                                                                    
                                                                                                    
                                                                                                    
                                                                                                    
                                                                                                    
                                                                                                    
                                                                                                    
                                                                                                    
                                                                                                    
                                                                                                    
                                                                                                    
                                                                                                    
                                                                                                    
                                                                                                    
                                                                                                    
                                                                                                    
                                                                                                    
                                                                                                    
                           
<?xpacket end="w"?></metadata>
<defs>
    <style>
      .cls-1 {
        fill: #fff;
        fill-rule: evenodd;
      }
    </style>
  </defs>
  <path class="cls-1" d="M53.439,23.358H23.974A4.566,4.566,0,0,0,19.4,27.906V50.44a4.566,4.566,0,0,0,4.574,4.548H53.439a4.567,4.567,0,0,0,4.574-4.548V27.906A4.567,4.567,0,0,0,53.439,23.358ZM55.174,50.44a1.733,1.733,0,0,1-1.735,1.725H23.974a1.732,1.732,0,0,1-1.735-1.725V27.906a1.732,1.732,0,0,1,1.735-1.725H53.439a1.733,1.733,0,0,1,1.735,1.725V50.44ZM9.824,38.093V15.56a1.733,1.733,0,0,1,1.735-1.726H41.025A1.733,1.733,0,0,1,42.76,15.56v4.147H45.6V15.56a4.567,4.567,0,0,0-4.574-4.549H11.559A4.567,4.567,0,0,0,6.985,15.56V38.093a4.566,4.566,0,0,0,4.574,4.549h3.2V39.818h-3.2A1.732,1.732,0,0,1,9.824,38.093Z"/>
</svg>
