<svg id="katman_1" data-name="katman 1" xmlns="http://www.w3.org/2000/svg" xmlns:xlink="http://www.w3.org/1999/xlink" viewBox="0 0 78 78"><defs><style>.cls-1{fill:#fff;}.cls-2{fill:url(#Adsız_degrade_8);}</style><linearGradient id="Adsız_degrade_8" x1="5.51" y1="38.51" x2="73.5" y2="38.51" gradientUnits="userSpaceOnUse"><stop offset="0" stop-color="#ff4d1d"/><stop offset="1" stop-color="#f30e75"/></linearGradient></defs><title>Çalışma Yüzeyi 24</title><path class="cls-2" d="M30.87,71.17l.24.12,2.24,1.12a.85.85,0,0,0,.8,0l2.23-1.12.25-.12.24.12,2.23,1.12a1,1,0,0,0,.4.1,1,1,0,0,0,.41-.1l2.23-1.12.24-.12.24.12,2.24,1.12a.85.85,0,0,0,.8,0l2.24-1.12.24-.12.24.12,2.23,1.12a.87.87,0,0,0,.81,0l2.23-1.12.24-.12.24.12,2.24,1.12a.85.85,0,0,0,.8,0l2.24-1.12.24-.12.24.12,2.23,1.12a1,1,0,0,0,.41.1,1,1,0,0,0,.4-.1l2.23-1.12.24-.12.25.12,2.23,1.12a.91.91,0,0,0,.4.1,1,1,0,0,0,.29-.05L72.88,71a.89.89,0,0,0,.52-.45.87.87,0,0,0,0-.69.9.9,0,0,0-.85-.61,1,1,0,0,0-.29,0l-3.75,1.25-.21.08-.2-.1-2.34-1.18a1,1,0,0,0-.41-.09,1,1,0,0,0-.4.09l-2.23,1.12-.24.12-.24-.12-2.24-1.12a.93.93,0,0,0-.8,0L57,70.48l-.78.39V64.38h0l0-.41.39-.14a.88.88,0,0,0,.38-.24l15.54-17a3.78,3.78,0,1,0-5.58-5.1L53.53,56.14l-.16.18H39V34.65l.33-.14a15.69,15.69,0,0,1,6-.86c4.43,0,6.1.87,6.5,1.14l.06,0,0,.06a.7.7,0,0,0,.54.27h.05A.79.79,0,0,0,53,34.9l0,0h0c.17-.13,1.8-1.22,5.28-1.22,3.3,0,4.73,1,5,1.17l0,0,0,0a.81.81,0,0,0,.6.26,1,1,0,0,0,.35-.07.91.91,0,0,0,.54-.87A26.62,26.62,0,0,0,57,15.24,26.92,26.92,0,0,0,49,9.68a26.6,26.6,0,0,0-9.48-2.26l-.52,0v-2a.9.9,0,1,0-1.79,0v2l-.52,0a26.6,26.6,0,0,0-9.48,2.26,26.92,26.92,0,0,0-8.06,5.56,26.62,26.62,0,0,0-7.84,18.95.91.91,0,0,0,.54.87,1.09,1.09,0,0,0,.35.07.77.77,0,0,0,.59-.26l0,0,0,0c.26-.2,1.71-1.17,5.1-1.17s4.85,1,5.1,1.17l0,0,0,0a.76.76,0,0,0,.56.3h0a.73.73,0,0,0,.57-.28l.05-.06.06,0c.41-.27,2.08-1.15,6.51-1.15a15.48,15.48,0,0,1,6,.87l.33.14V56.32H15a3.78,3.78,0,0,0,0,7.55h2v7l-.78-.39L14,69.36a1,1,0,0,0-.41-.09.93.93,0,0,0-.4.09l-2.34,1.18-.2.09-.22-.07L6.69,69.31a.86.86,0,0,0-.28,0,.9.9,0,0,0-.85.61.92.92,0,0,0,0,.69,1,1,0,0,0,.52.45l4.32,1.44a.93.93,0,0,0,.29.05.91.91,0,0,0,.4-.1l2.23-1.12.24-.12.25.12,2.23,1.12a.85.85,0,0,0,.8,0l2.24-1.12.24-.12.24.12,2.23,1.12a1,1,0,0,0,.41.1,1,1,0,0,0,.4-.1l2.23-1.12.24-.12.25.12,2.23,1.12a.85.85,0,0,0,.8,0l2.24-1.12ZM44.75,10.09A25,25,0,0,1,63,31.8l.08.8-.77-.23a13.55,13.55,0,0,0-3.93-.52,14.37,14.37,0,0,0-4.33.61l-.67.21,0-.7A35.19,35.19,0,0,0,51,20.8a25.17,25.17,0,0,0-5.13-8.19A22.53,22.53,0,0,0,44.25,11L42.44,9.45ZM39,32V9.61l.81.45A20.56,20.56,0,0,1,44.72,14c4.12,4.43,6.4,10.47,6.78,18l0,.74-.73-.2a21.14,21.14,0,0,0-5.55-.62,20.67,20.67,0,0,0-5.61.64l-.69.19Zm-16.13,0,0,.7-.67-.21a13.73,13.73,0,0,0-4.21-.58,14.2,14.2,0,0,0-4.05.53l-.77.23.08-.8a25.07,25.07,0,0,1,18.2-21.72l2.31-.64L31.88,11a22.71,22.71,0,0,0-1.66,1.59,25.28,25.28,0,0,0-5.13,8.19A35.22,35.22,0,0,0,22.83,31.94Zm13.65.55a21.12,21.12,0,0,0-5.61-.64,21.14,21.14,0,0,0-5.55.62l-.73.21,0-.75c.38-7.49,2.66-13.53,6.78-18a20.3,20.3,0,0,1,4.95-3.91l.81-.45V32.69ZM15,62.07a2,2,0,1,1,0-4h6.3v.54a.9.9,0,1,0,1.8,0v-.54h3.95v.54a.9.9,0,0,0,1.8,0v-.54h4v.54a.9.9,0,0,0,1.8,0v-.54h4v.54a.9.9,0,0,0,1.8,0v-.54h4v.54a.9.9,0,0,0,1.8,0v-.54h4v.54a.9.9,0,1,0,1.79,0v-.54h1.86a.88.88,0,0,0,.66-.29L68.26,42.7a2,2,0,0,1,1.46-.64,2,2,0,0,1,1.34.52,2,2,0,0,1,.12,2.8L56.07,61.9l-.16.17H15Zm13.19,8.41L28,70.6l-.24-.12-2.23-1.12a1,1,0,0,0-.4-.09,1,1,0,0,0-.41.09l-2.23,1.12-.24.12L22,70.48l-2.24-1.12a.9.9,0,0,0-.4-.09h-.54v-5.4H54.43v5.4h-.54a.9.9,0,0,0-.4.09l-2.23,1.12L51,70.6l-.24-.12-2.23-1.12a.93.93,0,0,0-.8,0L45.5,70.48l-.24.12L45,70.48l-2.23-1.12a1,1,0,0,0-.41-.09.9.9,0,0,0-.4.09l-2.23,1.12-.25.12-.24-.12L37,69.36a.93.93,0,0,0-.4-.09,1,1,0,0,0-.41.09L34,70.48l-.24.12-.24-.12-2.24-1.12a.93.93,0,0,0-.8,0Z"/></svg>