<svg id="katman_1" data-name="katman 1" xmlns="http://www.w3.org/2000/svg" xmlns:xlink="http://www.w3.org/1999/xlink" viewBox="0 0 78 78"><defs><style>.cls-1{fill:#f9f9f9;}.cls-2{fill:url(#Adsız_degrade_8);}.cls-3{fill:url(#Adsız_degrade_8-2);}</style><linearGradient id="Adsız_degrade_8" x1="2.74" y1="39" x2="75.27" y2="39" gradientUnits="userSpaceOnUse"><stop offset="0" stop-color="#ff4d1d"/><stop offset="1" stop-color="#f30e75"/></linearGradient><linearGradient id="Adsız_degrade_8-2" x1="2.62" y1="39" x2="75.39" y2="39" xlink:href="#Adsız_degrade_8"/></defs><title>Çalışma Yüzeyi 15</title><path class="cls-2" d="M23.87,27.92a.64.64,0,0,0-.68.69V29.7a.68.68,0,0,0,1.36,0V28.61A.64.64,0,0,0,23.87,27.92Zm-4.32,0a.64.64,0,0,0-.68.69V29.7a.68.68,0,1,0,1.35,0V28.61A.68.68,0,0,0,19.55,27.92Zm4.32,4.27a.63.63,0,0,0-.68.68V34a.68.68,0,0,0,1.36,0V32.87A.69.69,0,0,0,23.87,32.19Zm-4.32,0a.63.63,0,0,0-.68.68V34a.68.68,0,1,0,1.35,0V32.87A.75.75,0,0,0,19.55,32.19Zm4.32,4.36a.63.63,0,0,0-.68.68v1.09a.68.68,0,0,0,1.36,0V37.23A.63.63,0,0,0,23.87,36.55Zm-4.32,0a.63.63,0,0,0-.68.68v1.09a.68.68,0,1,0,1.35,0V37.23A.68.68,0,0,0,19.55,36.55Zm4.32,4.36a.63.63,0,0,0-.68.68v1.09a.68.68,0,0,0,1.36,0V41.59A.68.68,0,0,0,23.87,40.91Zm-4.32,0a.63.63,0,0,0-.68.68v1.09a.68.68,0,1,0,1.35,0V41.59A.75.75,0,0,0,19.55,40.91Zm4.32,4.35a.64.64,0,0,0-.68.69V47a.68.68,0,0,0,1.36,0V46A.64.64,0,0,0,23.87,45.26Zm-4.32,0a.64.64,0,0,0-.68.69V47a.68.68,0,1,0,1.35,0V46A.69.69,0,0,0,19.55,45.26ZM43,33.92a.62.62,0,0,0,.67-.68V31.33a.62.62,0,0,0-.67-.68.63.63,0,0,0-.68.68v1.91A.69.69,0,0,0,43,33.92Zm-3.87,0a.63.63,0,0,0,.67-.68V31.33a.68.68,0,1,0-1.35,0v1.91A.75.75,0,0,0,39.1,33.92Zm-3.79,0a.63.63,0,0,0,.68-.68V31.33a.63.63,0,0,0-.68-.68.62.62,0,0,0-.67.68v1.91A.74.74,0,0,0,35.31,33.92ZM43,41.72a.62.62,0,0,0,.67-.68v-1.9a.62.62,0,0,0-.67-.68.63.63,0,0,0-.68.68V41A.63.63,0,0,0,43,41.72Zm-3.87,0a.63.63,0,0,0,.67-.68v-1.9a.68.68,0,1,0-1.35,0V41A.68.68,0,0,0,39.1,41.72Zm-3.79,0A.63.63,0,0,0,36,41v-1.9a.63.63,0,0,0-.68-.68.62.62,0,0,0-.67.68V41A.68.68,0,0,0,35.31,41.72ZM43,49.62a.62.62,0,0,0,.67-.68V47a.63.63,0,0,0-.67-.69.64.64,0,0,0-.68.69v1.9A.68.68,0,0,0,43,49.62Zm-3.87,0a.63.63,0,0,0,.67-.68V47a.68.68,0,1,0-1.35,0v1.9A.75.75,0,0,0,39.1,49.62Zm-3.79,0a.63.63,0,0,0,.68-.68V47a.64.64,0,0,0-.68-.69.63.63,0,0,0-.67.69v1.9A.74.74,0,0,0,35.31,49.62ZM43,57.43a.62.62,0,0,0,.67-.68V54.84a.62.62,0,0,0-.67-.68.63.63,0,0,0-.68.68v1.91A.63.63,0,0,0,43,57.43Zm-3.87,0a.63.63,0,0,0,.67-.68V54.84a.68.68,0,1,0-1.35,0v1.91A.68.68,0,0,0,39.1,57.43Zm-3.79,0a.63.63,0,0,0,.68-.68V54.84a.63.63,0,0,0-.68-.68.62.62,0,0,0-.67.68v1.91A.68.68,0,0,0,35.31,57.43ZM43,65.33a.62.62,0,0,0,.67-.68V62.74a.62.62,0,0,0-.67-.68.63.63,0,0,0-.68.68v1.91A.69.69,0,0,0,43,65.33Zm-3.87,0a.63.63,0,0,0,.67-.68V62.74a.68.68,0,1,0-1.35,0v1.91A.75.75,0,0,0,39.1,65.33Zm-3.79,0a.63.63,0,0,0,.68-.68V62.74a.63.63,0,0,0-.68-.68.62.62,0,0,0-.67.68v1.91A.74.74,0,0,0,35.31,65.33Zm39.37,5.81H70.22V68.29l.16-.05A3.35,3.35,0,0,0,72.83,65a3.31,3.31,0,0,0-1.34-2.72l-.22-.15.19-.19a2.79,2.79,0,0,0,.83-2,2.89,2.89,0,0,0-2.83-2.86,2.81,2.81,0,0,0-2.84,2.86,3,3,0,0,0,.83,2l.19.19-.22.15A3.31,3.31,0,0,0,66.08,65a3.35,3.35,0,0,0,2.61,3.32l.18,0v2.86H63.46V44.86a.62.62,0,0,0-.67-.68H59.23v-32a.63.63,0,0,0-.68-.68H49.86V6.18a.68.68,0,1,0-1.35,0v5.31H39.1a.63.63,0,0,0-.68.68V24.48h-8a.63.63,0,0,0-.68.68V50.62H27.88V24.34a.63.63,0,0,0-.68-.68h-11a.62.62,0,0,0-.67.68V50.53H13.42a.63.63,0,0,0-.68.68V71.14H7.88V68.38l.16,0A3.36,3.36,0,0,0,10.4,65.1a3.15,3.15,0,0,0-1.34-2.63l-.22-.15L9,62.13a2.7,2.7,0,0,0,.74-1.93A2.8,2.8,0,0,0,7,57.43,2.8,2.8,0,0,0,4.27,60.2,3.12,3.12,0,0,0,5,62.14l.16.19-.2.14a3.29,3.29,0,0,0,1.18,5.86l.18,0v2.77H3.42a.68.68,0,0,0,0,1.36H74.59a.63.63,0,0,0,.68-.68C75.27,71.37,75.07,71.14,74.68,71.14ZM7,58.79A1.41,1.41,0,1,1,5.63,60.2,1.37,1.37,0,0,1,7,58.79ZM5.09,65.1A1.94,1.94,0,0,1,7,63.15a2,2,0,0,1,0,3.9A1.94,1.94,0,0,1,5.09,65.1ZM16.89,25h9.73V50.53H16.89Zm8.74,45.89h-.14v.23h-7v-8a3.62,3.62,0,0,1,3.56-3.67,3.58,3.58,0,0,1,3.56,3.67Zm4.23.23H27.07v-8a5,5,0,0,0-4.91-5,4.91,4.91,0,0,0-4.91,5v8H14.18v-19h.14v-.23H29.86Zm16.67,0H31.12V25.84H46.53Zm.67-46.66H39.77V12.76H57.88V44.08h-10V25.16A.63.63,0,0,0,47.2,24.48ZM58.33,70.91h-.14v.23h-7v-8a3.56,3.56,0,1,1,7.12,0Zm3.78.23H59.77v-8A5.08,5.08,0,0,0,54.86,58,4.92,4.92,0,0,0,50,63v8H48V55.8H62.11Zm0-16.71H47.88v-3.9H62.11Zm0-5.26H47.88V45.54H62.11Zm7.35,9.26a1.51,1.51,0,0,1,1.48,1.5,1.49,1.49,0,1,1-3,0A1.51,1.51,0,0,1,69.46,58.43Zm-2,6.49a2,2,0,1,1,2,2A2,2,0,0,1,67.43,64.92ZM50.72,25.75H55a.69.69,0,0,0,0-1.37H50.72a.69.69,0,0,0,0,1.37Zm0,4H55a.68.68,0,0,0,0-1.36H50.72a.68.68,0,0,0,0,1.36Zm0,4H55a.64.64,0,0,0,.68-.69.63.63,0,0,0-.68-.68H50.72a.63.63,0,0,0-.68.68A.64.64,0,0,0,50.72,33.74Zm0-16.44H55a.68.68,0,0,0,0-1.36H50.72a.68.68,0,1,0,0,1.36Zm0,4H55a.68.68,0,0,0,0-1.36H50.72a.68.68,0,0,0,0,1.36ZM47,15.94H42.7a.68.68,0,0,0,0,1.36H47a.68.68,0,0,0,0-1.36Zm0,4H42.7a.68.68,0,0,0,0,1.36H47a.75.75,0,0,0,.68-.68A.63.63,0,0,0,47,19.94Zm3.7,17.79H55a.68.68,0,0,0,0-1.36H50.72a.68.68,0,0,0,0,1.36Zm0,3.9H55a.68.68,0,0,0,0-1.36H50.72a.68.68,0,0,0,0,1.36Z"/><path class="cls-3" d="M74.59,72.63H3.42a.81.81,0,0,1,0-1.62h2.8V68.47l-.08,0A3.41,3.41,0,0,1,3.52,65.1a3.37,3.37,0,0,1,1.4-2.73L5,62.31l-.07-.09a3.21,3.21,0,0,1-.79-2A2.93,2.93,0,0,1,7,57.3,2.93,2.93,0,0,1,9.9,60.2a2.78,2.78,0,0,1-.79,2L9,62.3l.1.07a3.27,3.27,0,0,1,1.4,2.73,3.5,3.5,0,0,1-2.46,3.35l-.07,0V71h4.62V51.21a.75.75,0,0,1,.8-.8h2V24.34a.76.76,0,0,1,.8-.81h11a.75.75,0,0,1,.8.81V50.5h1.65V25.16a.75.75,0,0,1,.8-.81h7.84V12.17a.75.75,0,0,1,.81-.8h9.28V6.18a.81.81,0,0,1,1.61,0v5.19h8.56a.75.75,0,0,1,.81.8V44.05h3.43a.75.75,0,0,1,.8.81V71.1h5.16V68.47l-.08,0A3.49,3.49,0,0,1,66,65a3.44,3.44,0,0,1,1.4-2.82l.1-.07L67.36,62a3.13,3.13,0,0,1-.87-2.1,2.94,2.94,0,0,1,3-3,3,3,0,0,1,3,3,2.92,2.92,0,0,1-.87,2.1l-.09.09.1.07A3.42,3.42,0,0,1,73,65a3.48,3.48,0,0,1-2.54,3.35l-.07,0V71h4.33c.27,0,.71.11.71.81A.75.75,0,0,1,74.59,72.63ZM3.42,71.26a.56.56,0,0,0,0,1.12H74.59a.51.51,0,0,0,.55-.56c0-.49-.24-.56-.46-.56H70.1V68.2l.25-.08A3.25,3.25,0,0,0,72.71,65a3.18,3.18,0,0,0-1.29-2.62l-.34-.24.29-.29a2.68,2.68,0,0,0,.8-1.93,2.76,2.76,0,0,0-2.71-2.74,2.7,2.7,0,0,0-2.72,2.74,2.87,2.87,0,0,0,.8,1.93l.29.29-.33.24A3.18,3.18,0,0,0,66.2,65a3.24,3.24,0,0,0,2.52,3.2l.28.06v3.08H63.34V44.86a.5.5,0,0,0-.55-.56H59.11V12.17a.51.51,0,0,0-.56-.55H49.74V6.18a.5.5,0,0,0-.55-.55.51.51,0,0,0-.56.55v5.44H39.1a.51.51,0,0,0-.56.55V24.6H30.45a.51.51,0,0,0-.55.56V50.75H27.75V24.34a.51.51,0,0,0-.55-.56h-11a.51.51,0,0,0-.55.56V50.66H13.42a.5.5,0,0,0-.55.55V71.26H7.75v-3L8,68.22a3.27,3.27,0,0,0,2.28-3.12A3,3,0,0,0,9,62.58l-.34-.25.3-.29a2.56,2.56,0,0,0,.71-1.84A2.68,2.68,0,0,0,7,57.55,2.67,2.67,0,0,0,4.4,60.2a3,3,0,0,0,.73,1.86l.24.3-.31.22A3.11,3.11,0,0,0,3.77,65.1,3.17,3.17,0,0,0,6.2,68.21l.27.06v3Zm58.82,0H59.65V63.1a5,5,0,0,0-4.79-5A4.8,4.8,0,0,0,50.08,63v8.16H47.84V55.67h14.4ZM59.9,71H62V55.92H48.09v15h1.74V63a5,5,0,0,1,5-5.16,5.22,5.22,0,0,1,5,5.25Zm-1.58.25H51.09V63.1a3.68,3.68,0,1,1,7.36,0V71h-.13Zm-7-.25h6.73v-.22h.13V63.1a3.43,3.43,0,1,0-6.86,0Zm-4.69.25H31V25.71H46.65ZM31.25,71H46.4V26H31.25ZM30,71.26h-3V63.1a4.85,4.85,0,0,0-4.78-4.91,4.8,4.8,0,0,0-4.79,4.91v8.16H14.06V52h.13v-.22H30ZM27.19,71h2.55V52H14.44v.22h-.13V71h2.81V63.1a5,5,0,0,1,5-5.16,5.11,5.11,0,0,1,5,5.16Zm-1.57.25H18.38V63.1a3.76,3.76,0,0,1,3.69-3.8,3.7,3.7,0,0,1,3.68,3.8V71h-.13Zm-7-.25h6.74v-.22h.13V63.1a3.46,3.46,0,0,0-3.43-3.55,3.5,3.5,0,0,0-3.44,3.55ZM7,67.18A2.08,2.08,0,0,1,7,63a2.08,2.08,0,0,1,0,4.16Zm0-3.91a1.83,1.83,0,0,0,0,3.66,1.83,1.83,0,0,0,0-3.66Zm62.44,3.82a2.17,2.17,0,1,1,2.15-2.17A2.17,2.17,0,0,1,69.46,67.09Zm0-4.09a1.92,1.92,0,1,0,1.9,1.92A1.92,1.92,0,0,0,69.46,63ZM43,65.45a.79.79,0,0,1-.8-.8V62.74a.8.8,0,0,1,1.6,0v1.91A.75.75,0,0,1,43,65.45Zm0-3.26a.5.5,0,0,0-.55.55v1.91a.55.55,0,0,0,.55.55.5.5,0,0,0,.55-.55V62.74A.5.5,0,0,0,43,62.19ZM39.1,65.45a.87.87,0,0,1-.81-.8V62.74a.81.81,0,0,1,1.61,0v1.91A.75.75,0,0,1,39.1,65.45Zm0-3.26a.51.51,0,0,0-.56.55v1.91a.63.63,0,0,0,.56.55.5.5,0,0,0,.55-.55V62.74A.5.5,0,0,0,39.1,62.19Zm-3.79,3.26a.86.86,0,0,1-.8-.8V62.74a.8.8,0,0,1,1.6,0v1.91A.75.75,0,0,1,35.31,65.45Zm0-3.26a.5.5,0,0,0-.55.55v1.91a.62.62,0,0,0,.55.55.5.5,0,0,0,.55-.55V62.74A.5.5,0,0,0,35.31,62.19ZM7,61.73A1.55,1.55,0,0,1,5.5,60.2,1.5,1.5,0,0,1,7,58.67a1.53,1.53,0,0,1,0,3.06Zm0-2.81A1.25,1.25,0,0,0,5.75,60.2,1.27,1.27,0,1,0,7,58.92Zm62.44,2.63a1.59,1.59,0,0,1-1.62-1.62,1.62,1.62,0,1,1,3.23,0A1.58,1.58,0,0,1,69.46,61.55Zm0-3a1.4,1.4,0,0,0-1.37,1.38,1.37,1.37,0,1,0,2.73,0A1.4,1.4,0,0,0,69.46,58.55ZM43,57.55a.75.75,0,0,1-.8-.8V54.84a.8.8,0,1,1,1.6,0v1.91A.75.75,0,0,1,43,57.55Zm0-3.26a.5.5,0,0,0-.55.55v1.91a.55.55,0,0,0,1.1,0V54.84A.5.5,0,0,0,43,54.29ZM39.1,57.55a.8.8,0,0,1-.81-.8V54.84a.81.81,0,0,1,1.61,0v1.91A.75.75,0,0,1,39.1,57.55Zm0-3.26a.51.51,0,0,0-.56.55v1.91a.56.56,0,0,0,.56.55.5.5,0,0,0,.55-.55V54.84A.5.5,0,0,0,39.1,54.29Zm-3.79,3.26a.8.8,0,0,1-.8-.8V54.84a.8.8,0,0,1,1.6,0v1.91A.75.75,0,0,1,35.31,57.55Zm0-3.26a.5.5,0,0,0-.55.55v1.91a.55.55,0,0,0,.55.55.5.5,0,0,0,.55-.55V54.84A.5.5,0,0,0,35.31,54.29Zm26.93.27H47.75V50.41H62.24ZM48,54.31H62V50.66H48ZM26.74,50.66h-10V24.89h10ZM17,50.41h9.48V25.14H17Zm26-.66a.8.8,0,0,1-.8-.81V47a.8.8,0,1,1,1.6,0v1.9A.75.75,0,0,1,43,49.75Zm0-3.27a.5.5,0,0,0-.55.56v1.9a.56.56,0,0,0,.55.56.51.51,0,0,0,.55-.56V47A.5.5,0,0,0,43,46.48ZM39.1,49.75a.88.88,0,0,1-.81-.81V47a.81.81,0,1,1,1.61,0v1.9A.76.76,0,0,1,39.1,49.75Zm0-3.27a.51.51,0,0,0-.56.56v1.9a.64.64,0,0,0,.56.56.51.51,0,0,0,.55-.56V47A.5.5,0,0,0,39.1,46.48Zm-3.79,3.27a.87.87,0,0,1-.8-.81V47a.8.8,0,1,1,1.6,0v1.9A.75.75,0,0,1,35.31,49.75Zm0-3.27a.5.5,0,0,0-.55.56v1.9a.63.63,0,0,0,.55.56.51.51,0,0,0,.55-.56V47A.5.5,0,0,0,35.31,46.48Zm26.93,2.81H47.75V45.41H62.24ZM48,49H62V45.66H48Zm-24.13-1.2a.75.75,0,0,1-.8-.8V46a.8.8,0,1,1,1.6,0V47A.75.75,0,0,1,23.87,47.84Zm0-2.45a.51.51,0,0,0-.55.56V47a.55.55,0,0,0,1.1,0V46A.51.51,0,0,0,23.87,45.39Zm-4.33,2.45a.75.75,0,0,1-.8-.8V46a.76.76,0,0,1,.8-.81.81.81,0,0,1,.81.81V47A.75.75,0,0,1,19.54,47.84Zm0-2.45A.51.51,0,0,0,19,46V47a.56.56,0,0,0,1.11,0V46A.56.56,0,0,0,19.54,45.39ZM58,44.21H47.75v-19a.5.5,0,0,0-.55-.56H39.65v-12H58ZM48,44h9.75V12.89H39.9V24.35h7.3a.75.75,0,0,1,.8.81Zm-24.13-.48a.75.75,0,0,1-.8-.8V41.59a.75.75,0,0,1,.8-.81.81.81,0,0,1,.8.81v1.09A.75.75,0,0,1,23.87,43.48Zm0-2.45a.5.5,0,0,0-.55.56v1.09a.55.55,0,1,0,1.1,0V41.59A.56.56,0,0,0,23.87,41Zm-4.33,2.45a.75.75,0,0,1-.8-.8V41.59a.76.76,0,0,1,.8-.81.88.88,0,0,1,.81.81v1.09A.75.75,0,0,1,19.54,43.48Zm0-2.45a.51.51,0,0,0-.55.56v1.09a.56.56,0,0,0,1.11,0V41.59A.64.64,0,0,0,19.54,41ZM43,41.85a.75.75,0,0,1-.8-.81v-1.9a.8.8,0,1,1,1.6,0V41A.75.75,0,0,1,43,41.85Zm0-3.27a.5.5,0,0,0-.55.56V41a.55.55,0,1,0,1.1,0v-1.9A.5.5,0,0,0,43,38.58ZM39.1,41.85a.81.81,0,0,1-.81-.81v-1.9a.81.81,0,1,1,1.61,0V41A.76.76,0,0,1,39.1,41.85Zm0-3.27a.51.51,0,0,0-.56.56V41a.56.56,0,0,0,.56.56.5.5,0,0,0,.55-.56v-1.9A.5.5,0,0,0,39.1,38.58Zm-3.79,3.27a.81.81,0,0,1-.8-.81v-1.9a.8.8,0,1,1,1.6,0V41A.75.75,0,0,1,35.31,41.85Zm0-3.27a.5.5,0,0,0-.55.56V41a.56.56,0,0,0,.55.56.51.51,0,0,0,.55-.56v-1.9A.5.5,0,0,0,35.31,38.58ZM55,41.76H50.72a.75.75,0,0,1-.8-.81.75.75,0,0,1,.8-.8H55a.75.75,0,0,1,.8.8A.75.75,0,0,1,55,41.76ZM50.72,40.4a.56.56,0,0,0,0,1.11H55a.56.56,0,0,0,0-1.11ZM23.87,39.13a.75.75,0,0,1-.8-.81V37.23a.8.8,0,1,1,1.6,0v1.09A.75.75,0,0,1,23.87,39.13Zm0-2.46a.51.51,0,0,0-.55.56v1.09a.55.55,0,1,0,1.1,0V37.23A.51.51,0,0,0,23.87,36.67Zm-4.33,2.46a.76.76,0,0,1-.8-.81V37.23a.76.76,0,0,1,.8-.81.81.81,0,0,1,.81.81v1.09A.76.76,0,0,1,19.54,39.13Zm0-2.46a.51.51,0,0,0-.55.56v1.09a.56.56,0,1,0,1.11,0V37.23A.56.56,0,0,0,19.54,36.67ZM55,37.85H50.72a.75.75,0,0,1-.8-.8.75.75,0,0,1,.8-.81H55a.75.75,0,0,1,.8.81A.75.75,0,0,1,55,37.85Zm-4.32-1.36a.51.51,0,0,0-.55.56.5.5,0,0,0,.55.55H55a.5.5,0,0,0,.55-.55.51.51,0,0,0-.55-.56ZM23.87,34.77a.75.75,0,0,1-.8-.81V32.87a.75.75,0,0,1,.8-.8.81.81,0,0,1,.8.8V34A.75.75,0,0,1,23.87,34.77Zm0-2.45a.5.5,0,0,0-.55.55V34a.55.55,0,1,0,1.1,0V32.87A.55.55,0,0,0,23.87,32.32Zm-4.33,2.45a.76.76,0,0,1-.8-.81V32.87a.75.75,0,0,1,.8-.8.87.87,0,0,1,.81.8V34A.76.76,0,0,1,19.54,34.77Zm0-2.45a.5.5,0,0,0-.55.55V34a.56.56,0,1,0,1.11,0V32.87A.63.63,0,0,0,19.54,32.32ZM43,34a.8.8,0,0,1-.8-.8V31.33a.8.8,0,1,1,1.6,0v1.91A.75.75,0,0,1,43,34Zm0-3.27a.51.51,0,0,0-.55.56v1.91a.55.55,0,0,0,.55.55.51.51,0,0,0,.55-.55V31.33A.51.51,0,0,0,43,30.77ZM39.1,34a.87.87,0,0,1-.81-.8V31.33a.81.81,0,1,1,1.61,0v1.91A.75.75,0,0,1,39.1,34Zm0-3.27a.52.52,0,0,0-.56.56v1.91a.63.63,0,0,0,.56.55.51.51,0,0,0,.55-.55V31.33A.51.51,0,0,0,39.1,30.77ZM35.31,34a.86.86,0,0,1-.8-.8V31.33a.8.8,0,1,1,1.6,0v1.91A.75.75,0,0,1,35.31,34Zm0-3.27a.51.51,0,0,0-.55.56v1.91a.62.62,0,0,0,.55.55.5.5,0,0,0,.55-.55V31.33A.51.51,0,0,0,35.31,30.77ZM55,33.86H50.72a.81.81,0,0,1,0-1.61H55a.81.81,0,0,1,0,1.61ZM50.72,32.5a.56.56,0,0,0,0,1.11H55a.56.56,0,0,0,0-1.11Zm-26.85-2a.75.75,0,0,1-.8-.8V28.61a.8.8,0,1,1,1.6,0V29.7A.75.75,0,0,1,23.87,30.5Zm0-2.45a.5.5,0,0,0-.55.56V29.7a.55.55,0,0,0,1.1,0V28.61A.5.5,0,0,0,23.87,28.05ZM19.54,30.5a.76.76,0,0,1-.8-.8V28.61a.76.76,0,0,1,.8-.81.81.81,0,0,1,.81.81V29.7A.76.76,0,0,1,19.54,30.5Zm0-2.45a.51.51,0,0,0-.55.56V29.7a.56.56,0,0,0,1.11,0V28.61A.56.56,0,0,0,19.54,28.05ZM55,29.87H50.72a.81.81,0,0,1,0-1.62H55a.81.81,0,0,1,0,1.62ZM50.72,28.5a.56.56,0,0,0,0,1.12H55a.56.56,0,0,0,0-1.12ZM55,25.87H50.72a.81.81,0,0,1,0-1.61H55a.81.81,0,0,1,0,1.61Zm-4.32-1.36a.56.56,0,0,0,0,1.11H55a.56.56,0,0,0,0-1.11ZM55,21.42H50.72a.75.75,0,0,1-.8-.8.75.75,0,0,1,.8-.81H55a.75.75,0,0,1,.8.81A.75.75,0,0,1,55,21.42Zm-4.32-1.36a.56.56,0,0,0,0,1.11H55a.56.56,0,0,0,0-1.11ZM47,21.42H42.7a.75.75,0,0,1-.8-.8.75.75,0,0,1,.8-.81H47a.75.75,0,0,1,.8.81A.86.86,0,0,1,47,21.42ZM42.7,20.06a.56.56,0,0,0,0,1.11H47a.62.62,0,0,0,.55-.55.5.5,0,0,0-.55-.56ZM55,17.43H50.72a.75.75,0,0,1-.8-.81.75.75,0,0,1,.8-.8H55a.75.75,0,0,1,.8.8A.75.75,0,0,1,55,17.43Zm-4.32-1.36a.56.56,0,0,0,0,1.11H55a.56.56,0,0,0,0-1.11ZM47,17.43H42.7a.75.75,0,0,1-.8-.81.75.75,0,0,1,.8-.8H47a.75.75,0,0,1,.8.8A.75.75,0,0,1,47,17.43ZM42.7,16.07a.56.56,0,0,0,0,1.11H47a.56.56,0,0,0,0-1.11Z"/></svg>