<svg id="katman_1" data-name="katman 1" xmlns="http://www.w3.org/2000/svg" xmlns:xlink="http://www.w3.org/1999/xlink" viewBox="0 0 78 78"><defs><style>.cls-1{fill:#fff;}.cls-2{fill:url(#Adsız_degrade_8);}</style><linearGradient id="Adsız_degrade_8" x1="0.83" y1="42.2" x2="77.41" y2="42.2" gradientUnits="userSpaceOnUse"><stop offset="0" stop-color="#ff4d1d"/><stop offset="1" stop-color="#f30e75"/></linearGradient></defs><title>Çalışma Yüzeyi 23</title><path class="cls-2" d="M29.21,32.77a1.12,1.12,0,0,0-1.12,1.12V70.2a1.12,1.12,0,1,0,2.24,0V33.89C30.21,33.27,29.84,32.77,29.21,32.77Zm-9.83,7a1.12,1.12,0,0,0-1.13,1.12V65.59a1.13,1.13,0,0,0,2.25,0V40.75A1.1,1.1,0,0,0,19.38,39.76Zm29.51-7a1.12,1.12,0,0,0-1.12,1.12V70.2a1.12,1.12,0,1,0,2.24,0V33.89A1.11,1.11,0,0,0,48.89,32.77Zm9.84,7a1.12,1.12,0,0,0-1.12,1.12V65.59a1.12,1.12,0,1,0,2.24,0V40.75A1.1,1.1,0,0,0,58.73,39.76ZM74.67,16.42C70.56,10.18,59.85,10.56,54,10.81H52.26c-4.24,0-12,.12-13,.12s-9.21-.12-13.32-.12H24.23c-5.73-.25-16.56-.63-20.67,5.61C0,21.91,0,27.53,3.43,31.77a14.51,14.51,0,0,0,10.71,5A11.39,11.39,0,0,0,18.25,36a10.89,10.89,0,0,0,6.86-9.35c.24-3.5-1.13-6.74-3.62-8.37a8.9,8.9,0,0,0-9.59,0,6.18,6.18,0,0,0-2.74,6.37c.62,3.49,3,4.24,4,4.37a4.56,4.56,0,0,0,4.61-2.13,3.1,3.1,0,0,0-1-3.61,1.05,1.05,0,0,0-1.49,1.49c.24.25.62.88.49,1.13a2.28,2.28,0,0,1-2.36,1c-1.12-.12-1.87-1-2.12-2.62A4,4,0,0,1,13,20.17a6.6,6.6,0,0,1,7.23.12c1.87,1.12,2.86,3.62,2.61,6.37a8.86,8.86,0,0,1-5.48,7.48c-3.73,1.62-9.21,0-12.2-3.62s-2.74-8,.25-12.72c3.48-5.24,13.45-4.87,18.68-4.62H26c4.11,0,12.08.12,13.32.12h.25c1.25,0,8.72-.12,12.83-.12h1.87c5.35-.25,15.32-.62,18.68,4.62C76,22.54,76,27,73.18,30.52S64.71,35.76,61,34.14a8.88,8.88,0,0,1-5.48-7.48,6.7,6.7,0,0,1,2.62-6.37,6.84,6.84,0,0,1,7.22-.12,3.79,3.79,0,0,1,1.75,4.11A2.83,2.83,0,0,1,65,26.9a2.52,2.52,0,0,1-2.37-1c-.12-.25.25-.75.5-1.13a1.05,1.05,0,0,0-1.49-1.49c-.75.62-1.75,2.24-1,3.61A4.56,4.56,0,0,0,65.21,29c1-.13,3.36-.88,4-4.37a6,6,0,0,0-2.74-6.37,8.9,8.9,0,0,0-9.59,0c-2.49,1.63-3.86,4.87-3.61,8.37a10.84,10.84,0,0,0,11,10.1,14.49,14.49,0,0,0,10.71-5C78.29,27.53,78.29,21.91,74.67,16.42ZM39.05,27.78a1.12,1.12,0,0,0-1.12,1.12V72.57a1.12,1.12,0,1,0,2.24,0V28.9A1,1,0,0,0,39.05,27.78Zm9.22-3.5a1.12,1.12,0,0,0,0-2.24H29.84a1.12,1.12,0,0,0,0,2.24Z"/></svg>