<svg id="Layer_1" data-name="Layer 1" xmlns="http://www.w3.org/2000/svg" viewBox="0 0 78 78"><defs><style>.cls-1{fill:#232222;stroke:#1e1d1d;stroke-miterlimit:10;stroke-width:0.25px;}</style></defs><title>hostel</title><path class="cls-1" d="M69.5,18.1H58.2a3,3,0,0,0-2.9,2.3H27.7l-.2-.3-2.8-3.1a4.9,4.9,0,0,0-3.7-1.7H9V9.7a.7.7,0,1,0-1.5,0V68.3a.7.7,0,1,0,1.5,0V60H55.2v8.3a.7.7,0,0,0,.7.7H71.7a.7.7,0,0,0,.7-.7V21.1A3,3,0,0,0,69.5,18.1Zm.3,37.1a5.8,5.8,0,0,0-4.7-2.5H56.7V46.8H71V56.9Zm.5,3.3H56.7V54.1h8.4A4.4,4.4,0,0,1,68.6,56ZM55.2,21.8v4.4H9V21.8Zm1.5,14.9H71v8.6H56.7ZM71,32.2v3H56.7V27.7H71Zm-14.3-6V21.8h8.4a4.4,4.4,0,0,1,3.5,1.8l1.7,2.5ZM9,49.2H21.1a3.6,3.6,0,0,1,2.6,1.2l2,2.3H9Zm18.7,3.5h-.1l-2.8-3.1a4.9,4.9,0,0,0-3.7-1.7H9V27.7H55.2v25H27.7ZM58.2,19.5H69.5A1.5,1.5,0,0,1,71,21.1v3.5l-1.2-1.7a5.8,5.8,0,0,0-4.7-2.5H56.9A1.4,1.4,0,0,1,58.2,19.5ZM21.1,16.7a3.6,3.6,0,0,1,2.6,1.2l2.2,2.5H9V16.7ZM9,58.5V54.1H55.2v4.4ZM71,60v7.6H56.7V60Z"/></svg>