<svg id="katman_1" data-name="katman 1" xmlns="http://www.w3.org/2000/svg" xmlns:xlink="http://www.w3.org/1999/xlink" viewBox="0 0 78 78"><defs><style>.cls-1{fill:#fff;}.cls-2{fill:url(#Adsız_degrade_8);}</style><linearGradient id="Adsız_degrade_8" x1="7.53" y1="39" x2="72.46" y2="39" gradientUnits="userSpaceOnUse"><stop offset="0" stop-color="#ff4d1d"/><stop offset="1" stop-color="#f30e75"/></linearGradient></defs><title>Çalışma Yüzeyi 20</title><path class="cls-2" d="M69.48,18.07H58.17a3,3,0,0,0-2.88,2.29H27.72a.68.68,0,0,0-.18-.33l-2.76-3.14a5,5,0,0,0-3.71-1.66H9V9.74a.73.73,0,1,0-1.46,0V68.26a.73.73,0,1,0,1.46,0V60H55.22v8.3A.74.74,0,0,0,56,69H71.74a.73.73,0,0,0,.72-.74V21.1A3,3,0,0,0,69.48,18.07Zm.33,37.1a5.75,5.75,0,0,0-4.69-2.47H56.68V46.8H71V56.94Zm.54,3.32H56.68V54.14h8.44A4.35,4.35,0,0,1,68.64,56ZM55.22,21.83v4.35H9V21.83Zm1.46,14.86H71v8.63H56.68ZM71,32.23v3H56.68V27.66H71Zm-14.33-6V21.83h8.44a4.33,4.33,0,0,1,3.52,1.85l1.71,2.5ZM9,49.2H21.1a3.55,3.55,0,0,1,2.62,1.18l2,2.28H9Zm18.7,3.46a1.34,1.34,0,0,1-.11-.14l-2.77-3.14a4.92,4.92,0,0,0-3.71-1.66H9V27.66H55.22v25H27.69ZM58.2,19.55H69.52a1.55,1.55,0,0,1,1.53,1.55v3.5l-1.2-1.73a5.78,5.78,0,0,0-4.7-2.48H56.9A1.39,1.39,0,0,1,58.2,19.55ZM21.1,16.67a3.55,3.55,0,0,1,2.62,1.18l2.18,2.47H9V16.67ZM9,58.49V54.14H55.22v4.35ZM71,60v7.56H56.68V60Z"/></svg>