<svg xmlns="http://www.w3.org/2000/svg" viewBox="0 0 34.01 32.008">
  <defs>
    <style>
      .cls-1 {
        fill: #ea3f24;
      }
    </style>
  </defs>
  <path id="Shape_10_copy" data-name="Shape 10 copy" class="cls-1" d="M1988.216,669.569v-4.6a.432.432,0,1,1,.863,0v4.6a.432.432,0,1,1-.863,0Zm2.484,0V664.96a.43.43,0,0,1,.859,0v4.611a.43.43,0,0,1-.859,0Zm-10.106-.257v-9.779a.432.432,0,1,1,.863,0v9.779a.432.432,0,1,1-.863,0Zm21.586,0v-9.78a.43.43,0,0,1,.86,0v9.78a.43.43,0,0,1-.86,0Zm-3.64,0v-9.78a.43.43,0,0,1,.86,0v9.78a.43.43,0,0,1-.86,0Zm-21.58,0v-9.78a.43.43,0,0,1,.86,0v9.78a.43.43,0,0,1-.86,0ZM1989,662.926a2.571,2.571,0,0,1-2.387-1.112l-1.064-2.343a.432.432,0,1,1,.786-.357l1.064,2.342a1.869,1.869,0,0,0,1.6.6h1.768a1.867,1.867,0,0,0,1.6-.6l1.063-2.342a.432.432,0,1,1,.786.357l-1.064,2.343a2.573,2.573,0,0,1-2.387,1.112Zm17.141-2.7-.039-.243-1.521-9.466a2.574,2.574,0,0,0-2.5-1.925h-2.595a2.582,2.582,0,0,0-2.506,1.961l-1.565,5.4c0,.011-.011.019-.014.029a.429.429,0,0,1-.814-.27l1.56-5.384a3.439,3.439,0,0,1,3.339-2.6h2.595a3.445,3.445,0,0,1,3.344,2.615l1.568,9.745a.432.432,0,0,1-.357.5.365.365,0,0,1-.069.006A.432.432,0,0,1,2006.144,660.224Zm-32.782.359a.432.432,0,0,1-.364-.491l1.56-10.574a3.452,3.452,0,0,1,3.352-2.658h3.8a1.894,1.894,0,0,1,1.84,1.44l1.855,7.424a.433.433,0,0,1-.314.525.427.427,0,0,1-.5-.271c-.005-.015-.016-.028-.021-.044l-1.854-7.424a1.034,1.034,0,0,0-1-.785h-3.8a2.581,2.581,0,0,0-2.506,1.961l-1.517,10.3-.035.236a.431.431,0,0,1-.427.37A.5.5,0,0,1,1973.362,660.583Zm13.855-4.693a2.672,2.672,0,1,1,2.671,2.677A2.677,2.677,0,0,1,1987.216,655.89Zm.863,0a1.808,1.808,0,1,0,1.808-1.812A1.812,1.812,0,0,0,1988.079,655.89Zm9.424-12.873a3.285,3.285,0,1,1,3.285,3.293A3.289,3.289,0,0,1,1997.5,643.018Zm.862,0a2.423,2.423,0,1,0,2.423-2.428A2.429,2.429,0,0,0,1998.365,643.018Zm-22.444-1.73a3.286,3.286,0,1,1,3.286,3.292A3.29,3.29,0,0,1,1975.921,641.288Zm.863,0a2.423,2.423,0,1,0,2.423-2.428A2.428,2.428,0,0,0,1976.784,641.288Z" transform="translate(-1972.993 -637.995)"/>
</svg>
