<svg id="katman_1" data-name="katman 1" xmlns="http://www.w3.org/2000/svg" xmlns:xlink="http://www.w3.org/1999/xlink" viewBox="0 0 78 78"><defs><style>.cls-1{fill:#fff;}.cls-2{fill:url(#Adsız_degrade_8);}</style><linearGradient id="Adsız_degrade_8" x1="4.76" y1="39.54" x2="73.1" y2="39.54" gradientUnits="userSpaceOnUse"><stop offset="0" stop-color="#ff4d1d"/><stop offset="1" stop-color="#f30e75"/></linearGradient></defs><title>Çalışma Yüzeyi 17</title><path class="cls-2" d="M73.09,27.53v-.19c0-.05,0-.09,0-.1l-14-17.59,0-.05a.81.81,0,0,0-.2-.16l-.09-.06a1,1,0,0,0-.34-.09H19.59a1.06,1.06,0,0,0-.35.09l-.07,0A.66.66,0,0,0,19,9.6L5,27.16a.31.31,0,0,0,0,.07l-.07.11a.77.77,0,0,0,0,.12l0,.07a.87.87,0,0,0,0,.32,1,1,0,0,0,.09.31L38.28,69.45l.07.07.11.1.09,0,.08,0,.07,0a.69.69,0,0,0,.22,0h.14a.65.65,0,0,0,.25,0l0,0,.11,0,.08,0,0,0a.43.43,0,0,0,.07-.07l.05,0L73,28.33l0-.09s-.08,0-.07-.09,0-.2,0-.3h0C73,27.74,73.12,27.64,73.09,27.53Zm-.14,0ZM70.37,27H51.8l6.78-14.81ZM49.12,29,39,65.67,28.88,29ZM40.7,11H56.9L50.1,25.87ZM70.35,29,41.09,65,51,29s0,0,.08,0ZM29.62,27,39,12.17,48.39,27ZM21.1,11H37.31L27.9,25.87Zm5.8,18s0-.1.07-.07L36.91,65,7.65,29Zm-.7-2H7.63L19.42,12.19Zm-21.15.52ZM39.31,69.46Zm.1-.06ZM72.91,28Z"/></svg>