<svg id="katman_1" data-name="katman 1" xmlns="http://www.w3.org/2000/svg" xmlns:xlink="http://www.w3.org/1999/xlink" viewBox="0 0 78 78"><defs><style>.cls-1{fill:#f9f7f7;}.cls-2{fill:url(#Adsız_degrade_8);}.cls-3{fill:url(#Adsız_degrade_8-2);}.cls-4{fill:url(#Adsız_degrade_8-3);}.cls-5{fill:url(#Adsız_degrade_8-4);}.cls-6{fill:url(#Adsız_degrade_8-5);}.cls-7{fill:url(#Adsız_degrade_8-6);}.cls-8{fill:url(#Adsız_degrade_8-7);}.cls-9{fill:url(#Adsız_degrade_8-8);}.cls-10{fill:url(#Adsız_degrade_8-9);}.cls-11{fill:url(#Adsız_degrade_8-10);}.cls-12{fill:url(#Adsız_degrade_8-11);}.cls-13{fill:url(#Adsız_degrade_8-12);}.cls-14{fill:url(#Adsız_degrade_8-13);}.cls-15{fill:url(#Adsız_degrade_8-14);}.cls-16{fill:url(#Adsız_degrade_8-15);}.cls-17{fill:url(#Adsız_degrade_8-16);}</style><linearGradient id="Adsız_degrade_8" x1="49.63" y1="16.39" x2="57.17" y2="16.39" gradientUnits="userSpaceOnUse"><stop offset="0" stop-color="#ff4d1d"/><stop offset="1" stop-color="#f30e75"/></linearGradient><linearGradient id="Adsız_degrade_8-2" x1="29.86" y1="34.35" x2="77.44" y2="34.35" xlink:href="#Adsız_degrade_8"/><linearGradient id="Adsız_degrade_8-3" x1="0.29" y1="40.13" x2="18.81" y2="40.13" xlink:href="#Adsız_degrade_8"/><linearGradient id="Adsız_degrade_8-4" x1="41.17" y1="61.33" x2="42.5" y2="61.33" xlink:href="#Adsız_degrade_8"/><linearGradient id="Adsız_degrade_8-5" x1="40.17" y1="57" x2="42.5" y2="57" xlink:href="#Adsız_degrade_8"/><linearGradient id="Adsız_degrade_8-6" x1="24.5" y1="56.67" x2="32.5" y2="56.67" xlink:href="#Adsız_degrade_8"/><linearGradient id="Adsız_degrade_8-7" x1="31.17" y1="43.33" x2="39.17" y2="43.33" xlink:href="#Adsız_degrade_8"/><linearGradient id="Adsız_degrade_8-8" x1="17.83" y1="50.67" x2="52.5" y2="50.67" xlink:href="#Adsız_degrade_8"/><linearGradient id="Adsız_degrade_8-9" x1="10.17" y1="70" x2="69.83" y2="70" xlink:href="#Adsız_degrade_8"/><linearGradient id="Adsız_degrade_8-10" x1="22.65" y1="25.96" x2="24.79" y2="25.96" xlink:href="#Adsız_degrade_8"/><linearGradient id="Adsız_degrade_8-11" x1="20.24" y1="26.44" x2="22.41" y2="26.44" xlink:href="#Adsız_degrade_8"/><linearGradient id="Adsız_degrade_8-12" x1="25.18" y1="27.94" x2="26.38" y2="27.94" xlink:href="#Adsız_degrade_8"/><linearGradient id="Adsız_degrade_8-13" x1="55.08" y1="66.08" x2="56.42" y2="66.08" xlink:href="#Adsız_degrade_8"/><linearGradient id="Adsız_degrade_8-14" x1="50.92" y1="58.29" x2="60.67" y2="58.29" xlink:href="#Adsız_degrade_8"/><linearGradient id="Adsız_degrade_8-15" x1="63.17" y1="68" x2="64.41" y2="68" xlink:href="#Adsız_degrade_8"/><linearGradient id="Adsız_degrade_8-16" x1="59.1" y1="63.2" x2="68.48" y2="63.2" xlink:href="#Adsız_degrade_8"/></defs><title>Çalışma Yüzeyi 14</title><path class="cls-2" d="M49.63,16.39a3.77,3.77,0,1,0,3.77-3.77A3.77,3.77,0,0,0,49.63,16.39Zm1.4,0a2.37,2.37,0,1,1,2.37,2.37A2.37,2.37,0,0,1,51,16.39Z"/><path class="cls-3" d="M29.86,28v4L35,26.48l6.1,5.46,6.59-6.7L68,58.71a.72.72,0,0,0,1,.21.71.71,0,0,0,.2-1L54.56,33.9a.54.54,0,0,0,.15-.15l.28-.41,6.37-4,3.58,3.58,3.9-3.69,7.32,11a.71.71,0,0,0,1,.2.7.7,0,0,0,.2-1L64.19,19.69a1,1,0,0,0-1.69,0l-8.74,13L40.43,10.14a1,1,0,0,0-1.7,0L29.86,25Zm27.07,2.51,6.41-9.52L68.05,28,65,31l-3.41-3.41ZM31,25.71,39.54,11.4l7.4,12.54L41,30l-6.1-5.31L31,29Z"/><path class="cls-4" d="M18,45.1l.79-.79m0,0-7.7-11.44a.9.9,0,0,0-1.49,0l-9.23,14a.62.62,0,0,0,.17.86.64.64,0,0,0,.86-.17l4.1-6.25L9,44.52l3.15-3.15L18,45.1ZM11.94,39.8l-3,3L6.21,40.23,10.37,34,16,42.37Z"/><path class="cls-5" d="M41.83,60a.67.67,0,0,0-.66.67h0V62a.67.67,0,1,0,1.33,0V60.67a.67.67,0,0,0-.67-.67Z"/><path class="cls-6" d="M40.83,54.67a.67.67,0,0,0,0,1.33.34.34,0,0,1,.34.33v2.34a.67.67,0,0,0,1.33,0V56.33A1.66,1.66,0,0,0,40.83,54.67Z"/><path class="cls-7" d="M24.91,61.28a.58.58,0,0,0,.26,0h6.66a.66.66,0,0,0,.67-.66h0v-8a.67.67,0,0,0-.67-.67H25.17a.67.67,0,0,0-.67.67h0v8A.65.65,0,0,0,24.91,61.28Zm.92-8h5.34V60H29.44l.86-.86a.66.66,0,0,0-.94-.94L27.56,60h-.78L29,57.8a.66.66,0,0,0,0-.94.68.68,0,0,0-.94,0l-2.2,2.2Z"/><path class="cls-8" d="M31.17,44v2a.66.66,0,0,0,.66.67H38.5a.67.67,0,0,0,.67-.67h0V44a4,4,0,0,0-8,0Zm3.33,1.33h-2V44a2.65,2.65,0,0,1,2-2.58v3.91Zm1.33-3.91a2.65,2.65,0,0,1,2,2.58v1.33h-2Z"/><path class="cls-9" d="M18,48.2a.67.67,0,0,0,0,.94l2,2a.75.75,0,0,0,.47.19V66.67h-.67a.66.66,0,0,0-.66.66h0V70a.66.66,0,0,0,.66.67H50.5a.67.67,0,0,0,.67-.67h0V67.33a.67.67,0,0,0-.67-.66h-.67V51.33a.67.67,0,0,0,.47-.19l2-2a.65.65,0,0,0,0-.93L35.69,30.87a.67.67,0,0,0-.48-.2h0a.66.66,0,0,0-.48.2l-7.56,7.85V36h.66a.67.67,0,0,0,.67-.67h0v-4a.67.67,0,0,0-.67-.66h-8a.66.66,0,0,0-.66.66h0v4a.66.66,0,0,0,.66.67h.67v9.63ZM49.83,69.33H20.5V68H49.83ZM48.5,50.67v16h-2v-2a.67.67,0,0,0-.67-.67h-.66V56.33a4.34,4.34,0,0,0-8.67,0V64h-.67a.67.67,0,0,0-.66.67h0v2H21.83v-16ZM22.7,49.33l12.47-13,12.47,13Zm22.47,16v1.34H36.5V65.33ZM37.83,64V56.33a3,3,0,0,1,6,0V64ZM20.5,32h6.67v2.67H20.5Zm1.33,8V36h4v4.1l-4,4.15V40Zm13.38-7.7L50.9,48.66l-1.06,1.05L35.65,34.87a.67.67,0,0,0-.94,0l0,0L20.49,49.71l-1.06-1.05Z"/><rect class="cls-10" x="10.17" y="69.33" width="59.67" height="1.33" rx="0.67" ry="0.67"/><path class="cls-11" d="M24.08,31.17a.44.44,0,0,1-.24-.07.49.49,0,0,1-.19-.68,6.25,6.25,0,0,0-.44-3.79,7.8,7.8,0,0,1-.08-5.58.49.49,0,0,1,.66-.26.51.51,0,0,1,.25.66,6.87,6.87,0,0,0,.08,4.76c.62,1.32.93,3.75.4,4.7A.51.51,0,0,1,24.08,31.17Z"/><path class="cls-12" d="M21.88,28.62a.59.59,0,0,1-.48-.35,8.13,8.13,0,0,1-1.14-3.64.5.5,0,1,1,1,.24A6.24,6.24,0,0,0,22.35,28c.18.21-.07.54-.33.62A.36.36,0,0,1,21.88,28.62Z"/><path class="cls-13" d="M25.68,29.62a.47.47,0,0,0,.48-.35,6.65,6.65,0,0,0,.14-2.64.5.5,0,0,0-1,.24A5.74,5.74,0,0,1,25.21,29a.5.5,0,0,0,.33.62A.36.36,0,0,0,25.68,29.62Z"/><rect class="cls-14" x="55.08" y="62.08" width="1.33" height="8"/><path class="cls-15" d="M55.79,67.92c-2.73,0-4.87-4.23-4.87-9.63s2.14-9.62,4.87-9.62,4.88,4.22,4.88,9.62S58.53,67.92,55.79,67.92Zm0-18.25c-2.1,0-3.87,3.95-3.87,8.62s1.77,8.63,3.87,8.63,3.88-4,3.88-8.63S57.89,49.67,55.79,49.67Z"/><rect class="cls-16" x="63.17" y="66" width="1.25" height="4"/><path class="cls-17" d="M63.79,67.89a4.69,4.69,0,1,1,4.69-4.69A4.7,4.7,0,0,1,63.79,67.89Zm0-8.37a3.69,3.69,0,1,0,3.69,3.68A3.69,3.69,0,0,0,63.79,59.52Z"/></svg>