<svg id="katman_1" data-name="katman 1" xmlns="http://www.w3.org/2000/svg" xmlns:xlink="http://www.w3.org/1999/xlink" viewBox="0 0 78 78"><defs><style>.cls-1{fill:#f9f7f7;}.cls-2{fill:url(#Adsız_degrade_8);}</style><linearGradient id="Adsız_degrade_8" x1="8.61" y1="40.01" x2="71.36" y2="40.01" gradientUnits="userSpaceOnUse"><stop offset="0" stop-color="#ff4d1d"/><stop offset="1" stop-color="#f30e75"/></linearGradient></defs><title>Çalışma Yüzeyi 12</title><path class="cls-2" d="M46.32,14.1a4.37,4.37,0,0,0-2.45-5.19,3.62,3.62,0,0,0-4.15.93,3.78,3.78,0,0,0-4.23-.93A4.36,4.36,0,0,0,33,14.1c.92,4.26,6.15,6.43,6.38,6.5.07,0,.15.08.31.08s.23,0,.3-.08S45.33,18.36,46.32,14.1Zm-6.68,5c-1-.46-4.46-2.32-5.15-5.26A2.9,2.9,0,0,1,36,10.38,2.27,2.27,0,0,1,39,11.54a.78.78,0,0,0,1.3,0,2.4,2.4,0,0,1,2.08-1.31,2.62,2.62,0,0,1,.84.15,2.67,2.67,0,0,1,1.62,3.41C44.1,16.73,40.64,18.59,39.64,19.05ZM61.77,67.46l-4.23.92L54,52.59c3.3-1.55,4.3-9.22,2.3-18.43a103.61,103.61,0,0,0-3.45-12.08.84.84,0,0,0-.85-.47L41.25,24a.76.76,0,0,0-.61.78,114.47,114.47,0,0,0,2,12.46C44.71,46.47,48.86,52.9,52.55,53l3.53,15.8-4.45,1a.85.85,0,0,0-.62.93.76.76,0,0,0,.77.62h.15L62.08,69a.84.84,0,0,0,.61-.93A.83.83,0,0,0,61.77,67.46Zm-19.67-42,9.53-2.17a97.43,97.43,0,0,1,2.84,10,3.52,3.52,0,0,1-1.69.86,4.07,4.07,0,0,1-2.92-.47,5.58,5.58,0,0,0-3.92-.62,5,5,0,0,0-2.46,1.32C42.94,31.52,42.25,27.65,42.1,25.48ZM52.93,51.42c-2.53.55-6.76-5.26-8.83-14.48a2.16,2.16,0,0,1-.16-.69,4,4,0,0,1,2.38-1.71,4.07,4.07,0,0,1,2.92.47,5.64,5.64,0,0,0,3.92.62,4.28,4.28,0,0,0,1.69-.7C56.78,44,55.39,50.88,52.93,51.42ZM38.18,24.09l-10.76-2.4a.67.67,0,0,0-.85.46,103.28,103.28,0,0,0-3.53,12,36.67,36.67,0,0,0-.85,12.31c.46,3.25,1.54,5.42,3.08,6.19l-3.54,15.8-4.22-.93a.79.79,0,0,0-.31,1.55L27.34,71.4h.16a.74.74,0,0,0,.76-.62.77.77,0,0,0-.61-.92l-4.46-1,3.54-15.8c3.84-.08,8-6.58,10.07-15.8a116.92,116.92,0,0,0,2-12.46A.74.74,0,0,0,38.18,24.09ZM35.26,36.94C33.18,46.24,29,52,26.42,51.42c-1.23-.3-2.23-2.24-2.61-5.18a32.68,32.68,0,0,1,.69-11.31,5,5,0,0,0,1.69.7A5.63,5.63,0,0,0,30.11,35,4.07,4.07,0,0,1,33,34.54a4,4,0,0,1,2.38,1.71C35.34,36.48,35.34,36.71,35.26,36.94Zm.54-2.63A4.75,4.75,0,0,0,33.34,33a5.63,5.63,0,0,0-3.92.62,4.07,4.07,0,0,1-2.92.47,3.6,3.6,0,0,1-1.69-.85c.69-2.87,2-7.59,2.84-10l9.53,2.17C37,27.65,36.33,31.45,35.8,34.31ZM58.08,23.16a.75.75,0,0,0,1.08,0L70.3,11.93a.74.74,0,0,0,0-1.08.73.73,0,0,0-1.07,0L58.08,22.08A.74.74,0,0,0,58.08,23.16Zm-2.76-2.87c.07.08.23.08.3.08a.73.73,0,0,0,.69-.46L60.85,9.76a.76.76,0,0,0-.39-1,.75.75,0,0,0-1,.38L54.93,19.29A.76.76,0,0,0,55.32,20.29ZM71.3,22l-.23-.23a.7.7,0,0,0-.85-.16L59.39,26.33a.78.78,0,0,0-.39,1c0,.08.08.16.16.23a.67.67,0,0,0,.61.31c.16,0,.23,0,.31-.07L70.92,23A.77.77,0,0,0,71.3,22ZM20.89,23.08a.66.66,0,0,0,.54.23,1,1,0,0,0,.53-.15.74.74,0,0,0,0-1.08L10.82,10.85a.74.74,0,0,0-1.08,0,.76.76,0,0,0,0,1.08Zm2.84-3.17a.73.73,0,0,0,.69.46.45.45,0,0,0,.31-.08.81.81,0,0,0,.38-1.08L20.58,9.07a.75.75,0,1,0-1.38.61ZM20.2,28a.91.91,0,0,0,.61-.31c.08-.08.15-.15.15-.23a.77.77,0,0,0-.38-1L9.74,21.69a.69.69,0,0,0-.84.15c-.15.08-.15.16-.23.24a.89.89,0,0,0,.38,1.08l10.84,4.72A.45.45,0,0,0,20.2,28Z"/></svg>