<svg id="katman_1" data-name="katman 1" xmlns="http://www.w3.org/2000/svg" xmlns:xlink="http://www.w3.org/1999/xlink" viewBox="0 0 78 78"><defs><style>.cls-1{fill:#fff;}.cls-2{fill:url(#Adsız_degrade_8);}</style><linearGradient id="Adsız_degrade_8" x1="0.75" y1="39" x2="77.25" y2="39" gradientUnits="userSpaceOnUse"><stop offset="0" stop-color="#ff4d1d"/><stop offset="1" stop-color="#f30e75"/></linearGradient></defs><title>Çalışma Yüzeyi 25</title><path class="cls-2" d="M54.85,28.78a25.53,25.53,0,0,1,11.88-2.7,25.11,25.11,0,0,1,1,7.05,27.8,27.8,0,0,1-5.49,16.76A24.84,24.84,0,0,1,47,60a1,1,0,0,0-.79,1.23,1,1,0,0,0,1,.82l.21,0A26.86,26.86,0,0,0,63.89,51.11,30.09,30.09,0,0,0,69.78,33a24.88,24.88,0,0,0-1.37-8.29,1,1,0,0,0-.84-.63A26.48,26.48,0,0,0,54,26.92a1,1,0,0,0-.47,1.39A1,1,0,0,0,54.85,28.78ZM77,52.93a22.62,22.62,0,0,0-8.28-5.3,1,1,0,0,0-1.32.6,1,1,0,0,0,.6,1.33,22.09,22.09,0,0,1,7,4.3,23.42,23.42,0,0,1-16.28,13,21.35,21.35,0,0,1-16.15-2.44,1,1,0,0,0-1.4.36,1.06,1.06,0,0,0,.36,1.42,23.1,23.1,0,0,0,12,3.34,25.05,25.05,0,0,0,5.69-.67,25.83,25.83,0,0,0,14.2-8.59,21.64,21.64,0,0,0,3.8-6.32A1,1,0,0,0,77,52.93ZM30.55,62l.2,0a1,1,0,0,0,1-.82A1,1,0,0,0,31,60,24.87,24.87,0,0,1,15.75,49.89a27.8,27.8,0,0,1-5.49-16.76,25,25,0,0,1,1-7.05,25.53,25.53,0,0,1,11.88,2.7,1,1,0,0,0,1.36-.47A1,1,0,0,0,24,26.92a26.7,26.7,0,0,0-13.6-2.86,1,1,0,0,0-.85.63A25,25,0,0,0,8.22,33,30.18,30.18,0,0,0,14.1,51.12,26.92,26.92,0,0,0,30.55,62Zm4.86,2.35a21.3,21.3,0,0,1-16.15,2.44A23.42,23.42,0,0,1,3,53.86a22.19,22.19,0,0,1,7-4.29,1.05,1.05,0,0,0,.59-1.34,1,1,0,0,0-1.31-.6A22.7,22.7,0,0,0,1,52.92a1.06,1.06,0,0,0-.21,1,25.21,25.21,0,0,0,18,14.9,25.05,25.05,0,0,0,5.69.67,23.07,23.07,0,0,0,12-3.34,1,1,0,0,0,.36-1.42A1,1,0,0,0,35.41,64.38ZM52.24,35.21C51.88,17,40.06,9,39.56,8.67a1,1,0,0,0-1.12,0C37.94,9,26.12,17,25.76,35.21c-.38,18.55,12.59,26.52,12.72,26.6a1,1,0,0,0,1,0C39.65,61.73,52.62,53.75,52.24,35.21ZM39,59.67a26.34,26.34,0,0,1-5.52-5.61,30,30,0,0,1-5.69-18.81,33.36,33.36,0,0,1,6-18.94A26.44,26.44,0,0,1,39,10.8a26.71,26.71,0,0,1,5.19,5.51,33.29,33.29,0,0,1,6,18.94,30,30,0,0,1-5.68,18.81A26.34,26.34,0,0,1,39,59.67Z"/></svg>