<svg id="bar_icon" data-name="bar icon" xmlns="http://www.w3.org/2000/svg" width="64" height="64" viewBox="0 0 64 64">
  <metadata><?xpacket begin="﻿" id="W5M0MpCehiHzreSzNTczkc9d"?>
<x:xmpmeta xmlns:x="adobe:ns:meta/" x:xmptk="Adobe XMP Core 5.6-c138 79.159824, 2016/09/14-01:09:01        ">
   <rdf:RDF xmlns:rdf="http://www.w3.org/1999/02/22-rdf-syntax-ns#">
      <rdf:Description rdf:about=""/>
   </rdf:RDF>
</x:xmpmeta>
                                                                                                    
                                                                                                    
                                                                                                    
                                                                                                    
                                                                                                    
                                                                                                    
                                                                                                    
                                                                                                    
                                                                                                    
                                                                                                    
                                                                                                    
                                                                                                    
                                                                                                    
                                                                                                    
                                                                                                    
                                                                                                    
                                                                                                    
                                                                                                    
                                                                                                    
                                                                                                    
                           
<?xpacket end="w"?></metadata>
<defs>
    <style>
      .cls-1 {
        fill: #e13675;
      }

      .cls-1, .cls-2 {
        fill-rule: evenodd;
      }

      .cls-2 {
        fill: #ea3f24;
      }
    </style>
  </defs>
  <path id="Şekil_1067" data-name="Şekil 1067" class="cls-1" d="M47,30l-6.4-.218L42.55,16.536h2.637a0.787,0.787,0,0,0,0-1.574H41.213l-2.176,14.82L28,30v2l10.7,0.051L37.565,40a0.785,0.785,0,0,0,.654.891,0.773,0.773,0,0,0,.872-0.668l1.174-8.17L47,32V30Z"/>
  <path id="Şekil_1068" data-name="Şekil 1068" class="cls-1" d="M31.894,20.844a7.011,7.011,0,1,0-7.012,7.011l0.044-2a4.927,4.927,0,1,1,4.915-4.926Z"/>
  <path id="Şekil_1066" data-name="Şekil 1066" class="cls-2" d="M46.143,21.946H28.762a2.825,2.825,0,0,0-2.816,2.817v8.7A11.548,11.548,0,0,0,36.331,44.913v4.8H34a1.121,1.121,0,0,0-1.122,1.121v0A1.121,1.121,0,0,0,34,51.958h6.9a1.121,1.121,0,0,0,1.12-1.121v0a1.121,1.121,0,0,0-1.12-1.121h-2.33v-4.8A11.548,11.548,0,0,0,48.959,33.458v-8.7A2.825,2.825,0,0,0,46.143,21.946Zm0.914,11.04a9.6,9.6,0,1,1-19.208,0V25.474a1.412,1.412,0,0,1,1.407-1.409H45.649a1.408,1.408,0,0,1,1.408,1.409v7.512Z"/>
</svg>
