<svg id="banyo" xmlns="http://www.w3.org/2000/svg" width="64" height="64" viewBox="0 0 64 64">
  <metadata><?xpacket begin="﻿" id="W5M0MpCehiHzreSzNTczkc9d"?>
<x:xmpmeta xmlns:x="adobe:ns:meta/" x:xmptk="Adobe XMP Core 5.6-c138 79.159824, 2016/09/14-01:09:01        ">
   <rdf:RDF xmlns:rdf="http://www.w3.org/1999/02/22-rdf-syntax-ns#">
      <rdf:Description rdf:about=""/>
   </rdf:RDF>
</x:xmpmeta>
                                                                                                    
                                                                                                    
                                                                                                    
                                                                                                    
                                                                                                    
                                                                                                    
                                                                                                    
                                                                                                    
                                                                                                    
                                                                                                    
                                                                                                    
                                                                                                    
                                                                                                    
                                                                                                    
                                                                                                    
                                                                                                    
                                                                                                    
                                                                                                    
                                                                                                    
                                                                                                    
                           
<?xpacket end="w"?></metadata>
<defs>
    <style>
      .cls-1 {
        fill: #ff064c;
      }

      .cls-1, .cls-2 {
        fill-rule: evenodd;
      }

      .cls-2 {
        fill: #ff4d1d;
      }
    </style>
  </defs>
  <path class="cls-1" d="M49,30V21a4.01,4.01,0,0,0-4-4,3.958,3.958,0,0,0-4,4h0a1.347,1.347,0,0,0,.917,1.223A1.4,1.4,0,0,0,43,21h0a1.844,1.844,0,0,1,2-2,1.806,1.806,0,0,1,2,2v9m-5.084-1.4a0.784,0.784,0,0,1-.833-0.828v-3.23a0.833,0.833,0,0,1,1.667,0v3.23A0.833,0.833,0,0,1,41.917,28.6Zm-3.333,0h-0.25a0.787,0.787,0,0,1-.584-0.994l0.834-3.23a0.819,0.819,0,0,1,1.584.414l-0.834,3.23A0.672,0.672,0,0,1,38.583,28.6Zm6.667,0a0.905,0.905,0,0,1-.833-0.58l-0.833-3.23a0.818,0.818,0,0,1,1.582-.414L46,27.607a0.851,0.851,0,0,1-.583.994C45.417,28.518,45.333,28.6,45.25,28.6Z"/>
  <path id="Shape_18_copy" data-name="Shape 18 copy" class="cls-2" d="M47,32H14a3.458,3.458,0,0,0-3,3v2c0,4.472,2.917,8.84,7,10v1a1.06,1.06,0,0,0,.916.987A1.227,1.227,0,0,0,20,48V47a4.038,4.038,0,0,0,1,0H45v1a1.227,1.227,0,0,0,1.083.987A1.06,1.06,0,0,0,47,48V47c4.083-1.242,7-5.61,7-10V34.824C54,33.417,53.416,32,52,32H49M45,45H20c-4.333,0-6.583-2.776-7-7H52C51.584,42.141,49.334,45,45,45Zm7-9H13V35a1.152,1.152,0,0,1,1-1H51a1.152,1.152,0,0,1,1,1v1Z"/>
</svg>
