<svg id="yatak" xmlns="http://www.w3.org/2000/svg" width="64" height="64" viewBox="0 0 64 64">
  <metadata><?xpacket begin="﻿" id="W5M0MpCehiHzreSzNTczkc9d"?>
<x:xmpmeta xmlns:x="adobe:ns:meta/" x:xmptk="Adobe XMP Core 5.6-c138 79.159824, 2016/09/14-01:09:01        ">
   <rdf:RDF xmlns:rdf="http://www.w3.org/1999/02/22-rdf-syntax-ns#">
      <rdf:Description rdf:about=""/>
   </rdf:RDF>
</x:xmpmeta>
                                                                                                    
                                                                                                    
                                                                                                    
                                                                                                    
                                                                                                    
                                                                                                    
                                                                                                    
                                                                                                    
                                                                                                    
                                                                                                    
                                                                                                    
                                                                                                    
                                                                                                    
                                                                                                    
                                                                                                    
                                                                                                    
                                                                                                    
                                                                                                    
                                                                                                    
                                                                                                    
                           
<?xpacket end="w"?></metadata>
<defs>
    <style>
      .cls-1 {
        fill: #ff064c;
      }

      .cls-1, .cls-2 {
        fill-rule: evenodd;
      }

      .cls-2 {
        fill: #ff4d1d;
      }
    </style>
  </defs>
  <path class="cls-1" d="M46.013,29L46,24a1.8,1.8,0,0,0-2-2H36a1.8,1.8,0,0,0-2,2v5H31V24a1.8,1.8,0,0,0-2-2H21a1.8,1.8,0,0,0-2,2l0.013,5M43.99,29L36,29V25c0-1-.016-1,1-1h6c0.988,0,1,.048,1,1ZM29,29H21V25c0-1,.035-1,1-1h6c1.024,0,1-.015,1,1v4h0Z"/>
  <path id="Shape_16_copy" data-name="Shape 16 copy" class="cls-2" d="M52,31V22a3.751,3.751,0,0,0-4-4H17a3.751,3.751,0,0,0-4,4v9c-2.65,1.218-4,3.96-4,7.024v7.964A1.016,1.016,0,0,0,10.023,47L16,47a0.989,0.989,0,0,0,1-1V45H48v1a0.989,0.989,0,0,0,1,1h6a1,1,0,0,0,1-1.013L56,38C56,34.936,54.651,32.219,52,31ZM34,30H31M18,30H17c-0.418,0-1.6-.062-2,0V22a1.789,1.789,0,0,1,2-2H48a1.79,1.79,0,0,1,2,2v8c-0.4-.063-1.584,0-2,0H47m-2,0H36m-6.885.379L29,30H20M17,43V42H48v1H17Zm36.95,1.979h-3.8L50,41a0.99,0.99,0,0,0-1-1H16a0.99,0.99,0,0,0-1,1v4l-3.953-.021V38.023c0-3.1,1.8-6.023,4.953-6.023H49c3.154,0,5,2.9,5,6Z"/>
</svg>
