<svg id="gym_icon" data-name="gym icon" xmlns="http://www.w3.org/2000/svg" width="64" height="64" viewBox="0 0 64 64">
  <metadata><?xpacket begin="﻿" id="W5M0MpCehiHzreSzNTczkc9d"?>
<x:xmpmeta xmlns:x="adobe:ns:meta/" x:xmptk="Adobe XMP Core 5.6-c138 79.159824, 2016/09/14-01:09:01        ">
   <rdf:RDF xmlns:rdf="http://www.w3.org/1999/02/22-rdf-syntax-ns#">
      <rdf:Description rdf:about=""/>
   </rdf:RDF>
</x:xmpmeta>
                                                                                                    
                                                                                                    
                                                                                                    
                                                                                                    
                                                                                                    
                                                                                                    
                                                                                                    
                                                                                                    
                                                                                                    
                                                                                                    
                                                                                                    
                                                                                                    
                                                                                                    
                                                                                                    
                                                                                                    
                                                                                                    
                                                                                                    
                                                                                                    
                                                                                                    
                                                                                                    
                           
<?xpacket end="w"?></metadata>
<defs>
    <style>
      .cls-1 {
        fill: #ea3f24;
      }

      .cls-1, .cls-2 {
        fill-rule: evenodd;
      }

      .cls-2 {
        fill: #e13675;
      }
    </style>
  </defs>
  <path id="Şekil_1069" data-name="Şekil 1069" class="cls-1" d="M46.063,21A3.942,3.942,0,0,1,50,24.938V40.063A3.942,3.942,0,0,1,46.063,44H45.937A3.942,3.942,0,0,1,42,40.063V34H22v6.063A3.942,3.942,0,0,1,18.062,44H17.937A3.943,3.943,0,0,1,14,40.063V24.938A3.943,3.943,0,0,1,17.937,21h0.125A3.942,3.942,0,0,1,22,24.938V30H42V24.938A3.942,3.942,0,0,1,45.937,21h0.125m0-2H45.937A5.937,5.937,0,0,0,40,24.938V28H24V24.938A5.938,5.938,0,0,0,18.062,19H17.937A5.937,5.937,0,0,0,12,24.938V40.063A5.937,5.937,0,0,0,17.937,46h0.125A5.938,5.938,0,0,0,24,40.063V36H40v4.063A5.937,5.937,0,0,0,45.937,46h0.125A5.938,5.938,0,0,0,52,40.063V24.938A5.938,5.938,0,0,0,46.063,19h0ZM24,35.813H22V27.875h2v7.938Zm18,0H40V27.875h2v7.938Z"/>
  <path id="Şekil_1067_kopya" data-name="Şekil 1067 kopya" class="cls-2" d="M9,28.142A3.842,3.842,0,0,0,6,31.765v2.471A3.842,3.842,0,0,0,9,37.859V28.142M10.126,26H11V40H10.126A5.953,5.953,0,0,1,4,34.236V31.765A5.954,5.954,0,0,1,10.126,26h0Z"/>
  <path id="Şekil_1067" data-name="Şekil 1067" class="cls-2" d="M55,28.142a3.842,3.842,0,0,1,3,3.623v2.471a3.842,3.842,0,0,1-3,3.623V28.142M53.875,26H53V40h0.874A5.954,5.954,0,0,0,60,34.236V31.765A5.954,5.954,0,0,0,53.875,26h0Z"/>
</svg>
