<svg id="park_icon" data-name="park icon" xmlns="http://www.w3.org/2000/svg" width="64" height="64" viewBox="0 0 64 64">
  <metadata><?xpacket begin="﻿" id="W5M0MpCehiHzreSzNTczkc9d"?>
<x:xmpmeta xmlns:x="adobe:ns:meta/" x:xmptk="Adobe XMP Core 5.6-c138 79.159824, 2016/09/14-01:09:01        ">
   <rdf:RDF xmlns:rdf="http://www.w3.org/1999/02/22-rdf-syntax-ns#">
      <rdf:Description rdf:about=""/>
   </rdf:RDF>
</x:xmpmeta>
                                                                                                    
                                                                                                    
                                                                                                    
                                                                                                    
                                                                                                    
                                                                                                    
                                                                                                    
                                                                                                    
                                                                                                    
                                                                                                    
                                                                                                    
                                                                                                    
                                                                                                    
                                                                                                    
                                                                                                    
                                                                                                    
                                                                                                    
                                                                                                    
                                                                                                    
                                                                                                    
                           
<?xpacket end="w"?></metadata>
<defs>
    <style>
      .cls-1 {
        fill: none;
        stroke: #ea3f24;
        stroke-width: 2px;
      }

      .cls-1, .cls-2 {
        fill-rule: evenodd;
      }

      .cls-2 {
        fill: #e13675;
      }
    </style>
  </defs>
  <path class="cls-1" d="M33,14A14.2,14.2,0,0,1,47,28.389C47,36.336,35.953,47.965,33,51c-2.815-2.893-14-14.664-14-22.611A14.2,14.2,0,0,1,33,14Z"/>
  <path id="P" class="cls-2" d="M33.408,30.924a3.391,3.391,0,0,0,2.9-1.182,3.646,3.646,0,0,0,.69-2.242,3.524,3.524,0,0,0-.869-2.435,2.838,2.838,0,0,0-1.207-.812,5.268,5.268,0,0,0-1.821-.242H29.987V35h2.076V30.924h1.345ZM32.063,25.87h0.718a2.576,2.576,0,0,1,1.58.388,1.474,1.474,0,0,1,.5,1.235q0,1.573-1.945,1.573H32.063v-3.2Z"/>
</svg>
