<svg id="kişi" xmlns="http://www.w3.org/2000/svg" width="64" height="64" viewBox="0 0 64 64">
  <metadata><?xpacket begin="﻿" id="W5M0MpCehiHzreSzNTczkc9d"?>
<x:xmpmeta xmlns:x="adobe:ns:meta/" x:xmptk="Adobe XMP Core 5.6-c138 79.159824, 2016/09/14-01:09:01        ">
   <rdf:RDF xmlns:rdf="http://www.w3.org/1999/02/22-rdf-syntax-ns#">
      <rdf:Description rdf:about=""/>
   </rdf:RDF>
</x:xmpmeta>
                                                                                                    
                                                                                                    
                                                                                                    
                                                                                                    
                                                                                                    
                                                                                                    
                                                                                                    
                                                                                                    
                                                                                                    
                                                                                                    
                                                                                                    
                                                                                                    
                                                                                                    
                                                                                                    
                                                                                                    
                                                                                                    
                                                                                                    
                                                                                                    
                                                                                                    
                                                                                                    
                           
<?xpacket end="w"?></metadata>
<defs>
    <style>
      .cls-1 {
        fill: #ff4d1d;
      }

      .cls-1, .cls-2 {
        fill-rule: evenodd;
      }

      .cls-2 {
        fill: #ff064c;
      }
    </style>
  </defs>
  <path id="Shape_17_copy" data-name="Shape 17 copy" class="cls-1" d="M48,30.994a6,6,0,1,0-6-6A6.006,6.006,0,0,0,48,30.994ZM48,21a3.661,3.661,0,0,1,4,4,3.661,3.661,0,0,1-4,4,3.662,3.662,0,0,1-4-4A3.662,3.662,0,0,1,48,21Zm3,13H44a1.047,1.047,0,0,0-1,1.128h0A1,1,0,0,0,44,36h7a5.722,5.722,0,0,1,6,6l1.132-.008L59,42A7.909,7.909,0,0,0,51,34ZM17,30.994a6,6,0,1,1,6-6A6.006,6.006,0,0,1,17,30.994ZM17,21a3.662,3.662,0,0,0-4,4,3.662,3.662,0,0,0,4,4,3.662,3.662,0,0,0,4-4A3.662,3.662,0,0,0,17,21ZM14,34h7a1.047,1.047,0,0,1,1,1.128h0A1,1,0,0,1,21,36H14a5.721,5.721,0,0,0-6,6l-1.133-.008L6,42A7.909,7.909,0,0,1,14,34Z"/>
  <path class="cls-2" d="M32.821,36.718A7.18,7.18,0,1,0,25.7,29.533,7.163,7.163,0,0,0,32.821,36.718Zm0-12.659a5.474,5.474,0,1,1-5.429,5.474A5.456,5.456,0,0,1,32.821,24.059Zm2.7,14.758H30.117A8.157,8.157,0,0,0,22,47h1.7a6.451,6.451,0,0,1,6.417-6.47h5.408A6.451,6.451,0,0,1,41.941,47h1.7A8.158,8.158,0,0,0,35.525,38.817Z"/>
</svg>
