<svg id="restourant_icon" data-name="restourant icon" xmlns="http://www.w3.org/2000/svg" width="64" height="64" viewBox="0 0 64 64">
  <metadata><?xpacket begin="﻿" id="W5M0MpCehiHzreSzNTczkc9d"?>
<x:xmpmeta xmlns:x="adobe:ns:meta/" x:xmptk="Adobe XMP Core 5.6-c138 79.159824, 2016/09/14-01:09:01        ">
   <rdf:RDF xmlns:rdf="http://www.w3.org/1999/02/22-rdf-syntax-ns#">
      <rdf:Description rdf:about=""/>
   </rdf:RDF>
</x:xmpmeta>
                                                                                                    
                                                                                                    
                                                                                                    
                                                                                                    
                                                                                                    
                                                                                                    
                                                                                                    
                                                                                                    
                                                                                                    
                                                                                                    
                                                                                                    
                                                                                                    
                                                                                                    
                                                                                                    
                                                                                                    
                                                                                                    
                                                                                                    
                                                                                                    
                                                                                                    
                                                                                                    
                           
<?xpacket end="w"?></metadata>
<defs>
    <style>
      .cls-1 {
        fill: #e13675;
      }

      .cls-1, .cls-2 {
        fill-rule: evenodd;
      }

      .cls-2 {
        fill: #ea3f24;
      }
    </style>
  </defs>
  <path id="Şekil_1067" data-name="Şekil 1067" class="cls-1" d="M34.134,23.265a3.875,3.875,0,0,0,1.16,2.525,0.657,0.657,0,0,0,.943-0.047,0.7,0.7,0,0,0-.039-0.968,2.484,2.484,0,0,1-.723-1.554,2.219,2.219,0,0,1,.743-1.578,3.814,3.814,0,0,0,.01-5.4,0.657,0.657,0,0,0-.947-0.024,0.7,0.7,0,0,0-.024.969,2.485,2.485,0,0,1,.014,3.487A3.526,3.526,0,0,0,34.134,23.265Zm5.6,6.275a3.917,3.917,0,0,0,1.159,2.525,0.661,0.661,0,0,0,.945-0.047,0.7,0.7,0,0,0-.043-0.968,2.49,2.49,0,0,1-.721-1.554,2.226,2.226,0,0,1,.744-1.578,3.817,3.817,0,0,0,.013-5.4,0.659,0.659,0,0,0-.948-0.024,0.693,0.693,0,0,0-.023.969,2.488,2.488,0,0,1,.01,3.487A3.545,3.545,0,0,0,39.736,29.54Zm-16.807,0a3.871,3.871,0,0,0,1.161,2.525,0.657,0.657,0,0,0,.447.177,0.673,0.673,0,0,0,.5-0.223,0.7,0.7,0,0,0-.04-0.968,2.488,2.488,0,0,1-.722-1.554,2.214,2.214,0,0,1,.743-1.578,3.816,3.816,0,0,0,.01-5.4,0.659,0.659,0,0,0-.948-0.024,0.7,0.7,0,0,0-.024.969,2.485,2.485,0,0,1,.013,3.487A3.535,3.535,0,0,0,22.929,29.54Zm5.6-6.275a3.9,3.9,0,0,0,1.16,2.525,0.659,0.659,0,0,0,.448.177,0.667,0.667,0,0,0,.5-0.224,0.7,0.7,0,0,0-.041-0.968,2.482,2.482,0,0,1-.722-1.554,2.225,2.225,0,0,1,.743-1.578,3.817,3.817,0,0,0,.013-5.4,0.659,0.659,0,0,0-.948-0.024,0.694,0.694,0,0,0-.024.969,2.486,2.486,0,0,1,.01,3.487A3.547,3.547,0,0,0,28.531,23.265Z"/>
  <path id="Dikdörtgen_1070_kopya" data-name="Dikdörtgen 1070 kopya" class="cls-2" d="M48,46a15,15,0,1,0-30,0v0.122s2-.069,2-0.122a13,13,0,0,1,26,0S48,46.019,48,46ZM18,45H48v2H18V45Zm-4,3H52v2H14V48Zm2-3h2l3,5H19Zm34,0H48l-3,5h2ZM29,31.5a3.5,3.5,0,1,1,7,0M31,31a1.806,1.806,0,0,1,1.5-2A1.806,1.806,0,0,1,34,31"/>
</svg>
