<svg id="wifi-icon" xmlns="http://www.w3.org/2000/svg" width="64" height="64" viewBox="0 0 64 64">
  <metadata><?xpacket begin="﻿" id="W5M0MpCehiHzreSzNTczkc9d"?>
<x:xmpmeta xmlns:x="adobe:ns:meta/" x:xmptk="Adobe XMP Core 5.6-c138 79.159824, 2016/09/14-01:09:01        ">
   <rdf:RDF xmlns:rdf="http://www.w3.org/1999/02/22-rdf-syntax-ns#">
      <rdf:Description rdf:about=""/>
   </rdf:RDF>
</x:xmpmeta>
                                                                                                    
                                                                                                    
                                                                                                    
                                                                                                    
                                                                                                    
                                                                                                    
                                                                                                    
                                                                                                    
                                                                                                    
                                                                                                    
                                                                                                    
                                                                                                    
                                                                                                    
                                                                                                    
                                                                                                    
                                                                                                    
                                                                                                    
                                                                                                    
                                                                                                    
                                                                                                    
                           
<?xpacket end="w"?></metadata>
<defs>
    <style>
      .cls-1 {
        fill: #ea3f24;
      }

      .cls-1, .cls-2 {
        fill-rule: evenodd;
      }

      .cls-2 {
        fill: #e13675;
      }
    </style>
  </defs>
  <path id="Şekil_1075" data-name="Şekil 1075" class="cls-1" d="M21.662,39.581a1.539,1.539,0,0,0-.593,1.124,1.041,1.041,0,0,0,.323.809,1.249,1.249,0,0,0,.86.322,1.682,1.682,0,0,0,1.057-.394,16.162,16.162,0,0,1,20.3,0,1.483,1.483,0,0,0,1.916.072,1.043,1.043,0,0,0,.323-0.809,1.541,1.541,0,0,0-.593-1.124A18.78,18.78,0,0,0,21.662,39.581Zm-5.1-6.08a1.575,1.575,0,0,0-.548,1.124,1.108,1.108,0,0,0,.325.829,1.42,1.42,0,0,0,1.918-.089,22.79,22.79,0,0,1,30.4,0,1.613,1.613,0,0,0,1.063.419,1.213,1.213,0,0,0,.855-0.331,1.114,1.114,0,0,0,.326-0.83,1.576,1.576,0,0,0-.548-1.123A25.333,25.333,0,0,0,16.565,33.5Zm37.851-6.11a31.142,31.142,0,0,0-42.924,0,1.643,1.643,0,0,0-.525,1.142,1.183,1.183,0,0,0,.326.853,1.371,1.371,0,0,0,1.922-.1,28.642,28.642,0,0,1,39.48,0,1.561,1.561,0,0,0,1.065.447,1.149,1.149,0,0,0,1.18-1.2A1.634,1.634,0,0,0,54.417,27.391Z"/>
  <path id="Şekil_1075_kopya" data-name="Şekil 1075 kopya" class="cls-2" d="M40.091,45.283a10.381,10.381,0,0,0-13.26,0,1.848,1.848,0,0,0-.7,1.295,1.145,1.145,0,0,0,.3.878,1.227,1.227,0,0,0,.889.357,1.7,1.7,0,0,0,1.059-.395,7.952,7.952,0,0,1,10.155,0,1.457,1.457,0,0,0,1.948.037,1.14,1.14,0,0,0,.3-0.878A1.851,1.851,0,0,0,40.091,45.283Z"/>
</svg>
